<svg xmlns="http://www.w3.org/2000/svg" xmlns:xlink="http://www.w3.org/1999/xlink" width="43" zoomAndPan="magnify" viewBox="0 0 32.25 57.749999" height="77" preserveAspectRatio="xMidYMid meet" version="1.2"><defs><clipPath id="92bbd74dc9"><path d="M 0 0.535156 L 31.515625 0.535156 L 31.515625 56.972656 L 0 56.972656 Z M 0 0.535156 "/></clipPath><clipPath id="957793a9d1"><path d="M 0 3.25 L 31.382812 3.25 L 31.382812 56.753906 L 0 56.753906 Z M 0 3.25 "/></clipPath><clipPath id="ba9db99bd0"><path d="M 2.628906 0.535156 L 26.347656 0.535156 L 26.347656 6.453125 L 2.628906 6.453125 Z M 2.628906 0.535156 "/></clipPath><clipPath id="e3eb2f8b24"><path d="M 20.71875 1.265625 L 24.695312 1.265625 L 24.695312 5.238281 L 20.71875 5.238281 Z M 20.71875 1.265625 "/></clipPath><clipPath id="27d3ca9d03"><path d="M 22.707031 1.265625 C 21.609375 1.265625 20.71875 2.152344 20.71875 3.25 C 20.71875 4.347656 21.609375 5.238281 22.707031 5.238281 C 23.804688 5.238281 24.695312 4.347656 24.695312 3.25 C 24.695312 2.152344 23.804688 1.265625 22.707031 1.265625 Z M 22.707031 1.265625 "/></clipPath></defs><g id="8ff9d69f1f"><g clip-rule="nonzero" clip-path="url(#92bbd74dc9)"><path style=" stroke:none;fill-rule:nonzero;fill:#ffffff;fill-opacity:1;" d="M 0 0.535156 L 31.515625 0.535156 L 31.515625 56.972656 L 0 56.972656 Z M 0 0.535156 "/></g><g clip-rule="nonzero" clip-path="url(#957793a9d1)"><path style=" stroke:none;fill-rule:nonzero;fill:#737373;fill-opacity:1;" d="M 3.214844 36.070312 C 4.121094 36.15625 4.996094 35.90625 5.699219 35.371094 L 5.699219 35.953125 C 5.699219 37.332031 6.367188 38.65625 7.539062 39.378906 C 8.976562 40.261719 10.691406 40.054688 11.886719 39.109375 C 11.988281 40.949219 13.515625 42.414062 15.371094 42.414062 C 16.121094 42.414062 16.835938 42.175781 17.433594 41.742188 L 17.433594 52.429688 C 17.433594 54.582031 19.050781 56.460938 21.199219 56.605469 C 23.550781 56.761719 25.511719 54.894531 25.511719 52.574219 L 25.511719 32.839844 L 29.476562 28.039062 C 30.703125 26.558594 31.375 24.6875 31.375 22.761719 L 31.375 19.914062 C 31.375 17.742188 30.542969 15.691406 29.027344 14.132812 L 27.042969 12.101562 C 26.042969 11.074219 25.5 9.707031 25.511719 8.273438 C 25.539062 5.480469 23.164062 3.265625 20.378906 3.265625 L 9.0625 3.265625 C 6.269531 3.265625 4 5.53125 4 8.324219 L 4 9.199219 C 4 10.074219 3.574219 10.894531 2.851562 11.382812 C 2.097656 11.90625 1.476562 12.5625 0.996094 13.328125 C 0.339844 14.375 -0.0078125 15.585938 -0.0078125 16.832031 L -0.0078125 32.398438 C -0.0078125 34.257812 1.363281 35.890625 3.214844 36.070312 Z M 3.214844 36.070312 "/></g><path style=" stroke:none;fill-rule:nonzero;fill:#fbb657;fill-opacity:1;" d="M 1.429688 32.507812 L 1.429688 16.921875 C 1.429688 16.359375 1.503906 15.804688 1.675781 15.269531 C 2.035156 14.144531 2.722656 13.222656 3.675781 12.570312 C 4.785156 11.808594 5.441406 10.542969 5.441406 9.199219 L 5.441406 8.324219 C 5.441406 6.328125 7.066406 4.703125 9.0625 4.703125 L 20.332031 4.703125 C 22.328125 4.703125 24.074219 6.332031 24.070312 8.324219 C 24.070312 10.117188 24.761719 11.816406 26.015625 13.109375 L 28 15.140625 C 29.246094 16.421875 29.933594 18.117188 29.933594 19.914062 L 29.933594 22.761719 C 29.933594 24.351562 29.382812 25.898438 28.367188 27.121094 L 25.511719 30.582031 L 25.511719 24.09375 C 25.511719 23.695312 25.1875 23.371094 24.789062 23.371094 C 24.394531 23.371094 24.070312 23.695312 24.070312 24.09375 L 24.070312 52.460938 C 24.070312 53.8125 23.082031 55.027344 21.730469 55.160156 C 20.183594 55.3125 18.875 54.09375 18.875 52.574219 L 18.875 31.519531 C 18.875 31.121094 18.550781 30.800781 18.152344 30.800781 C 17.757812 30.800781 17.433594 31.121094 17.433594 31.519531 L 17.433594 38.816406 C 17.433594 39.890625 16.648438 40.855469 15.585938 40.964844 C 14.355469 41.082031 13.316406 40.117188 13.316406 38.914062 L 13.316406 31.984375 C 13.316406 31.582031 12.996094 31.261719 12.597656 31.261719 C 12.203125 31.261719 11.875 31.582031 11.875 31.984375 L 11.875 36.027344 C 11.875 37.261719 10.980469 38.371094 9.75 38.488281 C 8.335938 38.625 7.140625 37.519531 7.140625 36.136719 L 7.140625 31.367188 C 7.140625 30.96875 6.820312 30.648438 6.421875 30.648438 C 6.027344 30.648438 5.699219 30.96875 5.699219 31.367188 L 5.699219 32.410156 C 5.699219 33.523438 4.890625 34.523438 3.78125 34.632812 C 2.507812 34.757812 1.429688 33.753906 1.429688 32.507812 Z M 1.429688 32.507812 "/><g clip-rule="nonzero" clip-path="url(#ba9db99bd0)"><path style=" stroke:none;fill-rule:nonzero;fill:#545454;fill-opacity:1;" d="M 2.628906 0.535156 L 26.34375 0.535156 L 26.34375 6.453125 L 2.628906 6.453125 Z M 2.628906 0.535156 "/></g><g clip-rule="nonzero" clip-path="url(#e3eb2f8b24)"><g clip-rule="nonzero" clip-path="url(#27d3ca9d03)"><path style=" stroke:none;fill-rule:nonzero;fill:#fbb657;fill-opacity:1;" d="M 20.71875 1.265625 L 24.695312 1.265625 L 24.695312 5.238281 L 20.71875 5.238281 Z M 20.71875 1.265625 "/></g></g></g></svg>