<svg xmlns="http://www.w3.org/2000/svg" xmlns:xlink="http://www.w3.org/1999/xlink" width="680" zoomAndPan="magnify" viewBox="0 0 510 448.499987" height="598" preserveAspectRatio="xMidYMid meet" version="1.2"><defs><clipPath id="a759f50bd4"><path d="M 0.285156 0 L 509.714844 0 L 509.714844 448 L 0.285156 448 Z M 0.285156 0 "/></clipPath><clipPath id="61e48626a4"><path d="M 130.253906 219.390625 L 373 219.390625 L 373 431.78125 L 130.253906 431.78125 Z M 130.253906 219.390625 "/></clipPath><clipPath id="c2347f2610"><path d="M 251.617188 219.390625 L 372.984375 431.78125 L 130.253906 431.78125 Z M 251.617188 219.390625 "/></clipPath><clipPath id="cd5ba8cbac"><path d="M 9 219 L 255 219 L 255 432 L 9 432 Z M 9 219 "/></clipPath><clipPath id="46fba8d686"><path d="M 193.488281 114.792969 L 314.820312 325.433594 L 130.78125 431.441406 L 9.449219 220.800781 Z M 193.488281 114.792969 "/></clipPath><clipPath id="db94fe1db8"><path d="M 254.066406 219.957031 L 130.601562 431.132812 L 9.449219 220.800781 Z M 254.066406 219.957031 "/></clipPath><clipPath id="3646387e18"><path d="M 251 219 L 496 219 L 496 432 L 251 432 Z M 251 219 "/></clipPath><clipPath id="944a683b5b"><path d="M 189.832031 324.601562 L 312.5 114.738281 L 495.863281 221.917969 L 373.191406 431.78125 Z M 189.832031 324.601562 "/></clipPath><clipPath id="398d7625b6"><path d="M 251.078125 219.824219 L 495.683594 222.222656 L 373.191406 431.78125 Z M 251.078125 219.824219 "/></clipPath><clipPath id="88a282168f"><path d="M 9 11 L 255 11 L 255 224 L 9 224 Z M 9 11 "/></clipPath><clipPath id="998696f189"><path d="M 315.5 118.917969 L 192.417969 328.539062 L 9.269531 221 L 132.347656 11.378906 Z M 315.5 118.917969 "/></clipPath><clipPath id="75f77c58f3"><path d="M 254.050781 223.574219 L 9.449219 220.695312 L 132.347656 11.378906 Z M 254.050781 223.574219 "/></clipPath><clipPath id="7a930239f5"><path d="M 131.441406 11.378906 L 374.527344 11.378906 L 374.527344 223.765625 L 131.441406 223.765625 Z M 131.441406 11.378906 "/></clipPath><clipPath id="cca7362e22"><path d="M 253.160156 223.765625 L 131.796875 11.378906 L 374.527344 11.378906 Z M 253.160156 223.765625 "/></clipPath><clipPath id="a74c6704f5"><path d="M 251 11 L 497 11 L 497 224 L 251 224 Z M 251 11 "/></clipPath><clipPath id="e1e7d5d370"><path d="M 312.5 328.0625 L 190.589844 117.757812 L 374.335938 11.242188 L 496.246094 221.546875 Z M 312.5 328.0625 "/></clipPath><clipPath id="ce81a15a85"><path d="M 251.632812 223.0625 L 374.515625 11.550781 L 496.246094 221.546875 Z M 251.632812 223.0625 "/></clipPath><clipPath id="27a7ea14f3"><path d="M 129.503906 113.945312 L 372.234375 113.945312 L 372.234375 356.675781 L 129.503906 356.675781 Z M 129.503906 113.945312 "/></clipPath><clipPath id="2e0e274fec"><path d="M 250.867188 113.945312 C 183.839844 113.945312 129.503906 168.285156 129.503906 235.3125 C 129.503906 302.339844 183.839844 356.675781 250.867188 356.675781 C 317.898438 356.675781 372.234375 302.339844 372.234375 235.3125 C 372.234375 168.285156 317.898438 113.945312 250.867188 113.945312 Z M 250.867188 113.945312 "/></clipPath><clipPath id="e381ca6ff3"><path d="M 234.691406 350.304688 L 266.902344 350.304688 L 266.902344 404.992188 L 234.691406 404.992188 Z M 234.691406 350.304688 "/></clipPath><clipPath id="0b0d17cf66"><path d="M 237.511719 347.53125 L 261.757812 347.53125 L 261.757812 353.578125 L 237.511719 353.578125 Z M 237.511719 347.53125 "/></clipPath><clipPath id="f97950e5ca"><path d="M 256.003906 348.277344 L 260.070312 348.277344 L 260.070312 352.339844 L 256.003906 352.339844 Z M 256.003906 348.277344 "/></clipPath><clipPath id="dc879d2f1b"><path d="M 258.039062 348.277344 C 256.914062 348.277344 256.003906 349.183594 256.003906 350.308594 C 256.003906 351.429688 256.914062 352.339844 258.039062 352.339844 C 259.160156 352.339844 260.070312 351.429688 260.070312 350.308594 C 260.070312 349.183594 259.160156 348.277344 258.039062 348.277344 Z M 258.039062 348.277344 "/></clipPath></defs><g id="b4ec8a02ec"><g clip-rule="nonzero" clip-path="url(#a759f50bd4)"><path style=" stroke:none;fill-rule:nonzero;fill:#ffffff;fill-opacity:1;" d="M 0.285156 0 L 509.714844 0 L 509.714844 448 L 0.285156 448 Z M 0.285156 0 "/></g><g clip-rule="nonzero" clip-path="url(#61e48626a4)"><g clip-rule="nonzero" clip-path="url(#c2347f2610)"><path style=" stroke:none;fill-rule:nonzero;fill:#f2aa9d;fill-opacity:1;" d="M 130.253906 219.390625 L 373.339844 219.390625 L 373.339844 431.78125 L 130.253906 431.78125 Z M 130.253906 219.390625 "/></g></g><g clip-rule="nonzero" clip-path="url(#cd5ba8cbac)"><g clip-rule="nonzero" clip-path="url(#46fba8d686)"><g clip-rule="nonzero" clip-path="url(#db94fe1db8)"><path style=" stroke:none;fill-rule:nonzero;fill:#dcb4eb;fill-opacity:1;" d="M 193.488281 114.792969 L 314.820312 325.433594 L 130.78125 431.441406 L 9.449219 220.800781 Z M 193.488281 114.792969 "/></g></g></g><g clip-rule="nonzero" clip-path="url(#3646387e18)"><g clip-rule="nonzero" clip-path="url(#944a683b5b)"><g clip-rule="nonzero" clip-path="url(#398d7625b6)"><path style=" stroke:none;fill-rule:nonzero;fill:#79a3ab;fill-opacity:1;" d="M 189.832031 324.601562 L 312.5 114.738281 L 495.863281 221.917969 L 373.191406 431.78125 Z M 189.832031 324.601562 "/></g></g></g><g clip-rule="nonzero" clip-path="url(#88a282168f)"><g clip-rule="nonzero" clip-path="url(#998696f189)"><g clip-rule="nonzero" clip-path="url(#75f77c58f3)"><path style=" stroke:none;fill-rule:nonzero;fill:#c7d1c4;fill-opacity:1;" d="M 315.5 118.917969 L 192.417969 328.539062 L 9.269531 221 L 132.347656 11.378906 Z M 315.5 118.917969 "/></g></g></g><g clip-rule="nonzero" clip-path="url(#7a930239f5)"><g clip-rule="nonzero" clip-path="url(#cca7362e22)"><path style=" stroke:none;fill-rule:nonzero;fill:#d77103;fill-opacity:1;" d="M 374.527344 223.765625 L 131.441406 223.765625 L 131.441406 11.378906 L 374.527344 11.378906 Z M 374.527344 223.765625 "/></g></g><g clip-rule="nonzero" clip-path="url(#a74c6704f5)"><g clip-rule="nonzero" clip-path="url(#e1e7d5d370)"><g clip-rule="nonzero" clip-path="url(#ce81a15a85)"><path style=" stroke:none;fill-rule:nonzero;fill:#e1bfac;fill-opacity:1;" d="M 312.5 328.0625 L 190.589844 117.757812 L 374.335938 11.242188 L 496.246094 221.546875 Z M 312.5 328.0625 "/></g></g></g><g clip-rule="nonzero" clip-path="url(#27a7ea14f3)"><g clip-rule="nonzero" clip-path="url(#2e0e274fec)"><path style=" stroke:none;fill-rule:nonzero;fill:#fbb657;fill-opacity:1;" d="M 129.503906 113.945312 L 372.234375 113.945312 L 372.234375 356.675781 L 129.503906 356.675781 Z M 129.503906 113.945312 "/><path style="fill:none;stroke-width:8;stroke-linecap:butt;stroke-linejoin:miter;stroke:#737373;stroke-opacity:1;stroke-miterlimit:4;" d="M 161.99779 -0.00254774 C 72.52836 -0.00254774 -0.000328763 72.531355 -0.000328763 162.000785 C -0.000328763 251.470215 72.52836 323.998904 161.99779 323.998904 C 251.472434 323.998904 324.001123 251.470215 324.001123 162.000785 C 324.001123 72.531355 251.472434 -0.00254774 161.99779 -0.00254774 Z M 161.99779 -0.00254774 " transform="matrix(0.749165,0,0,0.749165,129.504153,113.947221)"/></g></g><g clip-rule="nonzero" clip-path="url(#e381ca6ff3)"><path style=" stroke:none;fill-rule:nonzero;fill:#737373;fill-opacity:1;" d="M 238.113281 383.851562 C 239.039062 383.9375 239.933594 383.683594 240.652344 383.136719 L 240.652344 383.730469 C 240.652344 385.140625 241.335938 386.496094 242.535156 387.230469 C 244 388.136719 245.753906 387.925781 246.976562 386.957031 C 247.078125 388.835938 248.640625 390.335938 250.539062 390.335938 C 251.304688 390.335938 252.035156 390.09375 252.644531 389.648438 L 252.644531 400.574219 C 252.644531 402.773438 254.300781 404.691406 256.492188 404.839844 C 258.898438 405 260.902344 403.089844 260.902344 400.722656 L 260.902344 380.550781 L 264.957031 375.644531 C 266.207031 374.132812 266.894531 372.214844 266.894531 370.25 L 266.894531 367.335938 C 266.894531 365.117188 266.046875 363.023438 264.496094 361.425781 L 262.46875 359.351562 C 261.445312 358.300781 260.890625 356.90625 260.902344 355.4375 C 260.929688 352.585938 258.5 350.320312 255.65625 350.320312 L 244.089844 350.320312 C 241.234375 350.320312 238.917969 352.636719 238.917969 355.492188 L 238.917969 356.386719 C 238.917969 357.28125 238.480469 358.121094 237.742188 358.621094 C 236.972656 359.15625 236.335938 359.824219 235.84375 360.609375 C 235.175781 361.679688 234.816406 362.914062 234.816406 364.1875 L 234.816406 380.101562 C 234.816406 382 236.222656 383.667969 238.113281 383.851562 Z M 238.113281 383.851562 "/></g><path style=" stroke:none;fill-rule:nonzero;fill:#fbb657;fill-opacity:1;" d="M 236.289062 380.207031 L 236.289062 364.28125 C 236.289062 363.707031 236.363281 363.136719 236.539062 362.589844 C 236.910156 361.441406 237.609375 360.5 238.582031 359.832031 C 239.714844 359.050781 240.390625 357.761719 240.390625 356.386719 L 240.390625 355.492188 C 240.390625 353.453125 242.046875 351.792969 244.089844 351.792969 L 255.609375 351.792969 C 257.648438 351.792969 259.433594 353.457031 259.429688 355.492188 C 259.429688 357.324219 260.136719 359.0625 261.417969 360.382812 L 263.445312 362.460938 C 264.71875 363.769531 265.421875 365.503906 265.421875 367.339844 L 265.421875 370.25 C 265.421875 371.875 264.859375 373.453125 263.824219 374.707031 L 260.902344 378.238281 L 260.902344 371.609375 C 260.902344 371.203125 260.574219 370.871094 260.164062 370.871094 C 259.761719 370.871094 259.429688 371.203125 259.429688 371.609375 L 259.429688 400.605469 C 259.429688 401.988281 258.417969 403.230469 257.039062 403.363281 C 255.457031 403.519531 254.117188 402.273438 254.117188 400.722656 L 254.117188 379.203125 C 254.117188 378.792969 253.789062 378.464844 253.382812 378.464844 C 252.980469 378.464844 252.644531 378.792969 252.644531 379.203125 L 252.644531 386.660156 C 252.644531 387.757812 251.84375 388.746094 250.753906 388.851562 C 249.5 388.976562 248.4375 387.988281 248.4375 386.757812 L 248.4375 379.671875 C 248.4375 379.265625 248.109375 378.9375 247.703125 378.9375 C 247.300781 378.9375 246.964844 379.265625 246.964844 379.671875 L 246.964844 383.804688 C 246.964844 385.066406 246.046875 386.203125 244.792969 386.324219 C 243.347656 386.460938 242.125 385.332031 242.125 383.917969 L 242.125 379.046875 C 242.125 378.636719 241.796875 378.308594 241.390625 378.308594 C 240.988281 378.308594 240.652344 378.636719 240.652344 379.046875 L 240.652344 380.109375 C 240.652344 381.25 239.824219 382.269531 238.691406 382.382812 C 237.390625 382.511719 236.289062 381.484375 236.289062 380.207031 Z M 236.289062 380.207031 "/><g clip-rule="nonzero" clip-path="url(#0b0d17cf66)"><path style=" stroke:none;fill-rule:nonzero;fill:#545454;fill-opacity:1;" d="M 237.511719 347.53125 L 261.753906 347.53125 L 261.753906 353.578125 L 237.511719 353.578125 Z M 237.511719 347.53125 "/></g><g clip-rule="nonzero" clip-path="url(#f97950e5ca)"><g clip-rule="nonzero" clip-path="url(#dc879d2f1b)"><path style=" stroke:none;fill-rule:nonzero;fill:#fbb657;fill-opacity:1;" d="M 256.003906 348.277344 L 260.070312 348.277344 L 260.070312 352.339844 L 256.003906 352.339844 Z M 256.003906 348.277344 "/></g></g><g style="fill:#2e2e2d;fill-opacity:1;"><g transform="translate(51.329493, 275.593692)"><path style="stroke:none" d="M 2.8125 2.0625 L 5.125 6.078125 L 3.90625 6.78125 L 0.734375 1.265625 L 12.21875 -5.34375 L 13.078125 -3.84375 Z M 2.8125 2.0625 "/></g></g><g style="fill:#2e2e2d;fill-opacity:1;"><g transform="translate(55.895674, 283.538042)"><path style="stroke:none" d="M 3.59375 6.53125 C 2.976562 5.46875 2.671875 4.351562 2.671875 3.1875 C 2.671875 2.03125 2.972656 0.9375 3.578125 -0.09375 C 4.179688 -1.125 5.039062 -1.960938 6.15625 -2.609375 C 7.28125 -3.253906 8.4375 -3.570312 9.625 -3.5625 C 10.820312 -3.5625 11.921875 -3.269531 12.921875 -2.6875 C 13.921875 -2.101562 14.726562 -1.28125 15.34375 -0.21875 C 15.96875 0.863281 16.28125 1.988281 16.28125 3.15625 C 16.289062 4.332031 15.992188 5.425781 15.390625 6.4375 C 14.785156 7.457031 13.914062 8.289062 12.78125 8.9375 C 11.644531 9.59375 10.488281 9.921875 9.3125 9.921875 C 8.132812 9.929688 7.039062 9.640625 6.03125 9.046875 C 5.03125 8.453125 4.21875 7.613281 3.59375 6.53125 Z M 4.90625 5.78125 C 5.375 6.59375 5.976562 7.210938 6.71875 7.640625 C 7.457031 8.078125 8.28125 8.28125 9.1875 8.25 C 10.09375 8.21875 11 7.9375 11.90625 7.40625 C 12.832031 6.875 13.535156 6.226562 14.015625 5.46875 C 14.492188 4.71875 14.734375 3.910156 14.734375 3.046875 C 14.742188 2.179688 14.515625 1.34375 14.046875 0.53125 C 13.578125 -0.28125 12.972656 -0.894531 12.234375 -1.3125 C 11.492188 -1.726562 10.675781 -1.921875 9.78125 -1.890625 C 8.882812 -1.867188 7.972656 -1.59375 7.046875 -1.0625 C 6.140625 -0.53125 5.441406 0.113281 4.953125 0.875 C 4.460938 1.632812 4.21875 2.441406 4.21875 3.296875 C 4.21875 4.148438 4.445312 4.976562 4.90625 5.78125 Z M 4.90625 5.78125 "/></g></g><g style="fill:#2e2e2d;fill-opacity:1;"><g transform="translate(63.81532, 297.316834)"><path style="stroke:none" d="M 3.59375 6.53125 C 2.976562 5.46875 2.671875 4.351562 2.671875 3.1875 C 2.671875 2.03125 2.972656 0.9375 3.578125 -0.09375 C 4.179688 -1.125 5.039062 -1.960938 6.15625 -2.609375 C 7.28125 -3.253906 8.4375 -3.570312 9.625 -3.5625 C 10.820312 -3.5625 11.921875 -3.269531 12.921875 -2.6875 C 13.921875 -2.101562 14.726562 -1.28125 15.34375 -0.21875 C 15.96875 0.863281 16.28125 1.988281 16.28125 3.15625 C 16.289062 4.332031 15.992188 5.425781 15.390625 6.4375 C 14.785156 7.457031 13.914062 8.289062 12.78125 8.9375 C 11.644531 9.59375 10.488281 9.921875 9.3125 9.921875 C 8.132812 9.929688 7.039062 9.640625 6.03125 9.046875 C 5.03125 8.453125 4.21875 7.613281 3.59375 6.53125 Z M 4.90625 5.78125 C 5.375 6.59375 5.976562 7.210938 6.71875 7.640625 C 7.457031 8.078125 8.28125 8.28125 9.1875 8.25 C 10.09375 8.21875 11 7.9375 11.90625 7.40625 C 12.832031 6.875 13.535156 6.226562 14.015625 5.46875 C 14.492188 4.71875 14.734375 3.910156 14.734375 3.046875 C 14.742188 2.179688 14.515625 1.34375 14.046875 0.53125 C 13.578125 -0.28125 12.972656 -0.894531 12.234375 -1.3125 C 11.492188 -1.726562 10.675781 -1.921875 9.78125 -1.890625 C 8.882812 -1.867188 7.972656 -1.59375 7.046875 -1.0625 C 6.140625 -0.53125 5.441406 0.113281 4.953125 0.875 C 4.460938 1.632812 4.21875 2.441406 4.21875 3.296875 C 4.21875 4.148438 4.445312 4.976562 4.90625 5.78125 Z M 4.90625 5.78125 "/></g></g><g style="fill:#2e2e2d;fill-opacity:1;"><g transform="translate(71.734966, 311.095625)"><path style="stroke:none" d="M 4.3125 7.5 L 6.84375 -0.25 L 1.59375 2.765625 L 0.734375 1.265625 L 12.21875 -5.34375 L 13.078125 -3.84375 L 7.75 -0.78125 L 15.8125 0.90625 L 16.890625 2.8125 L 8.15625 0.90625 L 5.4375 9.46875 Z M 4.3125 7.5 "/></g></g><g style="fill:#2e2e2d;fill-opacity:1;"><g transform="translate(77.883147, 321.792377)"><path style="stroke:none" d=""/></g></g><g style="fill:#2e2e2d;fill-opacity:1;"><g transform="translate(80.886268, 327.017279)"><path style="stroke:none" d="M 9.953125 3.609375 C 10.140625 4.078125 10.191406 4.5625 10.109375 5.0625 C 10.023438 5.5625 9.835938 6.03125 9.546875 6.46875 C 9.265625 6.90625 8.894531 7.253906 8.4375 7.515625 C 7.84375 7.859375 7.226562 8.015625 6.59375 7.984375 C 5.957031 7.953125 5.34375 7.726562 4.75 7.3125 C 4.15625 6.90625 3.632812 6.316406 3.1875 5.546875 L 0.734375 1.265625 L 12.21875 -5.34375 L 14.578125 -1.21875 C 15.023438 -0.4375 15.28125 0.300781 15.34375 1 C 15.40625 1.695312 15.296875 2.304688 15.015625 2.828125 C 14.734375 3.359375 14.316406 3.785156 13.765625 4.109375 C 13.078125 4.492188 12.40625 4.628906 11.75 4.515625 C 11.101562 4.398438 10.503906 4.097656 9.953125 3.609375 Z M 8.125 -0.984375 L 9.578125 1.546875 C 9.984375 2.253906 10.457031 2.703125 11 2.890625 C 11.550781 3.078125 12.117188 3.007812 12.703125 2.6875 C 13.285156 2.34375 13.628906 1.882812 13.734375 1.3125 C 13.847656 0.75 13.691406 0.0976562 13.265625 -0.640625 L 11.84375 -3.125 Z M 4.34375 4.71875 C 4.78125 5.46875 5.296875 5.945312 5.890625 6.15625 C 6.484375 6.375 7.09375 6.300781 7.71875 5.9375 C 8.351562 5.570312 8.726562 5.0625 8.84375 4.40625 C 8.957031 3.75 8.804688 3.054688 8.390625 2.328125 L 6.890625 -0.28125 L 2.828125 2.0625 Z M 4.34375 4.71875 "/></g></g><g style="fill:#2e2e2d;fill-opacity:1;"><g transform="translate(87.167074, 337.944777)"><path style="stroke:none" d="M 7.203125 6.59375 L 4.3125 1.578125 L 1.21875 2.125 L 0.3125 0.546875 L 14.125 -1.859375 L 15.125 -0.125 L 6.078125 10.5625 L 5.15625 8.984375 Z M 8.171875 5.453125 L 12.765625 0.046875 L 5.78125 1.3125 Z M 8.171875 5.453125 "/></g></g><g style="fill:#2e2e2d;fill-opacity:1;"><g transform="translate(94.025738, 349.877645)"><path style="stroke:none" d="M 6.15625 -2.609375 C 7.28125 -3.253906 8.4375 -3.578125 9.625 -3.578125 C 10.8125 -3.585938 11.90625 -3.300781 12.90625 -2.71875 C 13.914062 -2.132812 14.726562 -1.304688 15.34375 -0.234375 C 16.0625 1.015625 16.382812 2.28125 16.3125 3.5625 C 16.25 4.84375 15.785156 6.015625 14.921875 7.078125 L 13.890625 5.28125 C 14.398438 4.570312 14.671875 3.804688 14.703125 2.984375 C 14.734375 2.160156 14.507812 1.335938 14.03125 0.515625 C 13.570312 -0.285156 12.972656 -0.894531 12.234375 -1.3125 C 11.492188 -1.738281 10.675781 -1.9375 9.78125 -1.90625 C 8.882812 -1.875 7.972656 -1.59375 7.046875 -1.0625 C 6.140625 -0.53125 5.445312 0.109375 4.96875 0.859375 C 4.488281 1.609375 4.242188 2.410156 4.234375 3.265625 C 4.222656 4.128906 4.445312 4.960938 4.90625 5.765625 C 5.382812 6.585938 5.976562 7.191406 6.6875 7.578125 C 7.394531 7.972656 8.191406 8.128906 9.078125 8.046875 L 10.109375 9.84375 C 8.753906 10.050781 7.507812 9.859375 6.375 9.265625 C 5.25 8.671875 4.328125 7.75 3.609375 6.5 C 2.992188 5.425781 2.679688 4.3125 2.671875 3.15625 C 2.671875 2 2.972656 0.910156 3.578125 -0.109375 C 4.179688 -1.128906 5.039062 -1.960938 6.15625 -2.609375 Z M 6.15625 -2.609375 "/></g></g><g style="fill:#2e2e2d;fill-opacity:1;"><g transform="translate(101.812764, 363.425701)"><path style="stroke:none" d="M 4.3125 7.5 L 6.84375 -0.25 L 1.59375 2.765625 L 0.734375 1.265625 L 12.21875 -5.34375 L 13.078125 -3.84375 L 7.75 -0.78125 L 15.8125 0.90625 L 16.890625 2.8125 L 8.15625 0.90625 L 5.4375 9.46875 Z M 4.3125 7.5 "/></g></g><g style="fill:#2e2e2d;fill-opacity:1;"><g transform="translate(393.965055, 376.376821)"><path style="stroke:none" d="M 0.390625 -3.46875 L 2.734375 -7.46875 L 3.953125 -6.75 L 0.75 -1.265625 L -10.6875 -7.96875 L -9.828125 -9.453125 Z M 0.390625 -3.46875 "/></g></g><g style="fill:#2e2e2d;fill-opacity:1;"><g transform="translate(398.598868, 368.471729)"><path style="stroke:none" d="M 3.90625 -6.359375 C 3.28125 -5.304688 2.460938 -4.488281 1.453125 -3.90625 C 0.441406 -3.332031 -0.660156 -3.050781 -1.859375 -3.0625 C -3.054688 -3.070312 -4.210938 -3.40625 -5.328125 -4.0625 C -6.441406 -4.71875 -7.289062 -5.5625 -7.875 -6.59375 C -8.457031 -7.625 -8.742188 -8.722656 -8.734375 -9.890625 C -8.722656 -11.054688 -8.40625 -12.164062 -7.78125 -13.21875 C -7.15625 -14.300781 -6.332031 -15.128906 -5.3125 -15.703125 C -4.300781 -16.285156 -3.207031 -16.566406 -2.03125 -16.546875 C -0.851562 -16.535156 0.289062 -16.203125 1.40625 -15.546875 C 2.539062 -14.878906 3.40625 -14.035156 4 -13.015625 C 4.59375 -11.992188 4.878906 -10.898438 4.859375 -9.734375 C 4.847656 -8.566406 4.53125 -7.441406 3.90625 -6.359375 Z M 2.59375 -7.140625 C 3.0625 -7.941406 3.296875 -8.769531 3.296875 -9.625 C 3.304688 -10.488281 3.070312 -11.300781 2.59375 -12.0625 C 2.113281 -12.832031 1.421875 -13.484375 0.515625 -14.015625 C -0.398438 -14.546875 -1.304688 -14.832031 -2.203125 -14.875 C -3.097656 -14.914062 -3.914062 -14.722656 -4.65625 -14.296875 C -5.40625 -13.878906 -6.015625 -13.265625 -6.484375 -12.453125 C -6.960938 -11.648438 -7.203125 -10.820312 -7.203125 -9.96875 C -7.203125 -9.113281 -6.96875 -8.300781 -6.5 -7.53125 C -6.03125 -6.769531 -5.335938 -6.125 -4.421875 -5.59375 C -3.515625 -5.0625 -2.609375 -4.773438 -1.703125 -4.734375 C -0.796875 -4.691406 0.0234375 -4.882812 0.765625 -5.3125 C 1.515625 -5.738281 2.125 -6.347656 2.59375 -7.140625 Z M 2.59375 -7.140625 "/></g></g><g style="fill:#2e2e2d;fill-opacity:1;"><g transform="translate(406.635817, 354.761027)"><path style="stroke:none" d="M 3.90625 -6.359375 C 3.28125 -5.304688 2.460938 -4.488281 1.453125 -3.90625 C 0.441406 -3.332031 -0.660156 -3.050781 -1.859375 -3.0625 C -3.054688 -3.070312 -4.210938 -3.40625 -5.328125 -4.0625 C -6.441406 -4.71875 -7.289062 -5.5625 -7.875 -6.59375 C -8.457031 -7.625 -8.742188 -8.722656 -8.734375 -9.890625 C -8.722656 -11.054688 -8.40625 -12.164062 -7.78125 -13.21875 C -7.15625 -14.300781 -6.332031 -15.128906 -5.3125 -15.703125 C -4.300781 -16.285156 -3.207031 -16.566406 -2.03125 -16.546875 C -0.851562 -16.535156 0.289062 -16.203125 1.40625 -15.546875 C 2.539062 -14.878906 3.40625 -14.035156 4 -13.015625 C 4.59375 -11.992188 4.878906 -10.898438 4.859375 -9.734375 C 4.847656 -8.566406 4.53125 -7.441406 3.90625 -6.359375 Z M 2.59375 -7.140625 C 3.0625 -7.941406 3.296875 -8.769531 3.296875 -9.625 C 3.304688 -10.488281 3.070312 -11.300781 2.59375 -12.0625 C 2.113281 -12.832031 1.421875 -13.484375 0.515625 -14.015625 C -0.398438 -14.546875 -1.304688 -14.832031 -2.203125 -14.875 C -3.097656 -14.914062 -3.914062 -14.722656 -4.65625 -14.296875 C -5.40625 -13.878906 -6.015625 -13.265625 -6.484375 -12.453125 C -6.960938 -11.648438 -7.203125 -10.820312 -7.203125 -9.96875 C -7.203125 -9.113281 -6.96875 -8.300781 -6.5 -7.53125 C -6.03125 -6.769531 -5.335938 -6.125 -4.421875 -5.59375 C -3.515625 -5.0625 -2.609375 -4.773438 -1.703125 -4.734375 C -0.796875 -4.691406 0.0234375 -4.882812 0.765625 -5.3125 C 1.515625 -5.738281 2.125 -6.347656 2.59375 -7.140625 Z M 2.59375 -7.140625 "/></g></g><g style="fill:#2e2e2d;fill-opacity:1;"><g transform="translate(414.672767, 341.050326)"><path style="stroke:none" d="M 4.375 -7.46875 L -3.609375 -5.8125 L 1.609375 -2.75 L 0.75 -1.265625 L -10.6875 -7.96875 L -9.828125 -9.453125 L -4.53125 -6.34375 L -7.046875 -14.1875 L -5.953125 -16.078125 L -3.265625 -7.515625 L 5.515625 -9.421875 Z M 4.375 -7.46875 "/></g></g><g style="fill:#2e2e2d;fill-opacity:1;"><g transform="translate(420.912012, 330.406432)"><path style="stroke:none" d=""/></g></g><g style="fill:#2e2e2d;fill-opacity:1;"><g transform="translate(423.959614, 325.20735)"><path style="stroke:none" d="M 2.15625 -9.515625 L -0.765625 -4.53125 L 1.234375 -2.109375 L 0.3125 -0.546875 L -8.625 -11.328125 L -7.609375 -13.0625 L 6.15625 -10.515625 L 5.234375 -8.9375 Z M 0.6875 -9.796875 L -6.296875 -11.125 L -1.734375 -5.671875 Z M 0.6875 -9.796875 "/></g></g><g style="fill:#2e2e2d;fill-opacity:1;"><g transform="translate(430.919866, 313.33345)"><path style="stroke:none" d="M -5.53125 -16.765625 L 5.90625 -10.0625 L 5.03125 -8.578125 L -0.15625 -11.625 L -3.578125 -5.796875 L 1.609375 -2.75 L 0.75 -1.265625 L -10.6875 -7.96875 L -9.828125 -9.453125 L -4.8125 -6.515625 L -1.390625 -12.34375 L -6.40625 -15.28125 Z M -5.53125 -16.765625 "/></g></g><g style="fill:#2e2e2d;fill-opacity:1;"><g transform="translate(438.053157, 301.164352)"><path style="stroke:none" d="M -8.609375 -8.734375 L -4.796875 -6.5 L -2.34375 -10.671875 L -1.09375 -9.953125 L -3.546875 -5.78125 L 0.375 -3.46875 L 3.109375 -8.125 L 4.34375 -7.40625 L 0.75 -1.265625 L -10.6875 -7.96875 L -7.09375 -14.109375 L -5.875 -13.390625 Z M -8.609375 -8.734375 "/></g></g><g style="fill:#2e2e2d;fill-opacity:1;"><g transform="translate(443.465653, 291.93086)"><path style="stroke:none" d="M 2.15625 -9.515625 L -0.765625 -4.53125 L 1.234375 -2.109375 L 0.3125 -0.546875 L -8.625 -11.328125 L -7.609375 -13.0625 L 6.15625 -10.515625 L 5.234375 -8.9375 Z M 0.6875 -9.796875 L -6.296875 -11.125 L -1.734375 -5.671875 Z M 0.6875 -9.796875 "/></g></g><g style="fill:#2e2e2d;fill-opacity:1;"><g transform="translate(450.425905, 280.05696)"><path style="stroke:none" d="M -8.609375 -11.53125 C -7.878906 -12.78125 -7.015625 -13.722656 -6.015625 -14.359375 C -5.015625 -15.003906 -3.9375 -15.316406 -2.78125 -15.296875 C -1.632812 -15.273438 -0.472656 -14.914062 0.703125 -14.21875 C 1.867188 -13.539062 2.738281 -12.707031 3.3125 -11.71875 C 3.882812 -10.726562 4.128906 -9.644531 4.046875 -8.46875 C 3.960938 -7.289062 3.554688 -6.078125 2.828125 -4.828125 L 0.75 -1.265625 L -10.6875 -7.96875 Z M 1.59375 -5.546875 C 2.457031 -7.015625 2.722656 -8.367188 2.390625 -9.609375 C 2.066406 -10.847656 1.203125 -11.878906 -0.203125 -12.703125 C -1.628906 -13.546875 -2.96875 -13.804688 -4.21875 -13.484375 C -5.476562 -13.160156 -6.535156 -12.269531 -7.390625 -10.8125 L -8.609375 -8.734375 L 0.375 -3.46875 Z M 1.59375 -5.546875 "/></g></g><g style="fill:#2e2e2d;fill-opacity:1;"><g transform="translate(209.566614, 422.953514)"><path style="stroke:none" d="M 3.1875 -1.40625 L 7.828125 -1.40625 L 7.828125 0 L 1.46875 0 L 1.46875 -13.25 L 3.1875 -13.25 Z M 3.1875 -1.40625 "/></g></g><g style="fill:#2e2e2d;fill-opacity:1;"><g transform="translate(218.72973, 422.953514)"><path style="stroke:none" d="M 7.46875 0.140625 C 6.238281 0.140625 5.117188 -0.144531 4.109375 -0.71875 C 3.097656 -1.300781 2.296875 -2.109375 1.703125 -3.140625 C 1.109375 -4.179688 0.8125 -5.347656 0.8125 -6.640625 C 0.8125 -7.929688 1.109375 -9.09375 1.703125 -10.125 C 2.296875 -11.15625 3.097656 -11.957031 4.109375 -12.53125 C 5.117188 -13.113281 6.238281 -13.40625 7.46875 -13.40625 C 8.71875 -13.40625 9.847656 -13.113281 10.859375 -12.53125 C 11.867188 -11.957031 12.664062 -11.15625 13.25 -10.125 C 13.832031 -9.101562 14.125 -7.941406 14.125 -6.640625 C 14.125 -5.328125 13.832031 -4.15625 13.25 -3.125 C 12.664062 -2.101562 11.867188 -1.300781 10.859375 -0.71875 C 9.847656 -0.144531 8.71875 0.140625 7.46875 0.140625 Z M 7.46875 -1.375 C 8.394531 -1.375 9.226562 -1.585938 9.96875 -2.015625 C 10.71875 -2.441406 11.300781 -3.054688 11.71875 -3.859375 C 12.144531 -4.660156 12.359375 -5.585938 12.359375 -6.640625 C 12.359375 -7.703125 12.144531 -8.628906 11.71875 -9.421875 C 11.300781 -10.210938 10.722656 -10.820312 9.984375 -11.25 C 9.242188 -11.6875 8.40625 -11.90625 7.46875 -11.90625 C 6.53125 -11.90625 5.691406 -11.6875 4.953125 -11.25 C 4.222656 -10.820312 3.644531 -10.210938 3.21875 -9.421875 C 2.800781 -8.628906 2.59375 -7.703125 2.59375 -6.640625 C 2.59375 -5.585938 2.800781 -4.660156 3.21875 -3.859375 C 3.644531 -3.054688 4.226562 -2.441406 4.96875 -2.015625 C 5.707031 -1.585938 6.539062 -1.375 7.46875 -1.375 Z M 7.46875 -1.375 "/></g></g><g style="fill:#2e2e2d;fill-opacity:1;"><g transform="translate(234.622366, 422.953514)"><path style="stroke:none" d="M 7.46875 0.140625 C 6.238281 0.140625 5.117188 -0.144531 4.109375 -0.71875 C 3.097656 -1.300781 2.296875 -2.109375 1.703125 -3.140625 C 1.109375 -4.179688 0.8125 -5.347656 0.8125 -6.640625 C 0.8125 -7.929688 1.109375 -9.09375 1.703125 -10.125 C 2.296875 -11.15625 3.097656 -11.957031 4.109375 -12.53125 C 5.117188 -13.113281 6.238281 -13.40625 7.46875 -13.40625 C 8.71875 -13.40625 9.847656 -13.113281 10.859375 -12.53125 C 11.867188 -11.957031 12.664062 -11.15625 13.25 -10.125 C 13.832031 -9.101562 14.125 -7.941406 14.125 -6.640625 C 14.125 -5.328125 13.832031 -4.15625 13.25 -3.125 C 12.664062 -2.101562 11.867188 -1.300781 10.859375 -0.71875 C 9.847656 -0.144531 8.71875 0.140625 7.46875 0.140625 Z M 7.46875 -1.375 C 8.394531 -1.375 9.226562 -1.585938 9.96875 -2.015625 C 10.71875 -2.441406 11.300781 -3.054688 11.71875 -3.859375 C 12.144531 -4.660156 12.359375 -5.585938 12.359375 -6.640625 C 12.359375 -7.703125 12.144531 -8.628906 11.71875 -9.421875 C 11.300781 -10.210938 10.722656 -10.820312 9.984375 -11.25 C 9.242188 -11.6875 8.40625 -11.90625 7.46875 -11.90625 C 6.53125 -11.90625 5.691406 -11.6875 4.953125 -11.25 C 4.222656 -10.820312 3.644531 -10.210938 3.21875 -9.421875 C 2.800781 -8.628906 2.59375 -7.703125 2.59375 -6.640625 C 2.59375 -5.585938 2.800781 -4.660156 3.21875 -3.859375 C 3.644531 -3.054688 4.226562 -2.441406 4.96875 -2.015625 C 5.707031 -1.585938 6.539062 -1.375 7.46875 -1.375 Z M 7.46875 -1.375 "/></g></g><g style="fill:#2e2e2d;fill-opacity:1;"><g transform="translate(250.515002, 422.953514)"><path style="stroke:none" d="M 8.65625 0 L 3.1875 -6.046875 L 3.1875 0 L 1.46875 0 L 1.46875 -13.25 L 3.1875 -13.25 L 3.1875 -7.109375 L 8.671875 -13.25 L 10.859375 -13.25 L 4.84375 -6.625 L 10.921875 0 Z M 8.65625 0 "/></g></g><g style="fill:#2e2e2d;fill-opacity:1;"><g transform="translate(262.852775, 422.953514)"><path style="stroke:none" d=""/></g></g><g style="fill:#2e2e2d;fill-opacity:1;"><g transform="translate(268.879243, 422.953514)"><path style="stroke:none" d="M 3.15625 -13.25 L 3.15625 -4.875 C 3.15625 -3.6875 3.441406 -2.804688 4.015625 -2.234375 C 4.597656 -1.671875 5.398438 -1.390625 6.421875 -1.390625 C 7.441406 -1.390625 8.238281 -1.671875 8.8125 -2.234375 C 9.382812 -2.804688 9.671875 -3.6875 9.671875 -4.875 L 9.671875 -13.25 L 11.40625 -13.25 L 11.40625 -4.890625 C 11.40625 -3.785156 11.179688 -2.851562 10.734375 -2.09375 C 10.296875 -1.34375 9.695312 -0.78125 8.9375 -0.40625 C 8.1875 -0.0390625 7.34375 0.140625 6.40625 0.140625 C 5.46875 0.140625 4.617188 -0.0390625 3.859375 -0.40625 C 3.109375 -0.78125 2.515625 -1.34375 2.078125 -2.09375 C 1.640625 -2.851562 1.421875 -3.785156 1.421875 -4.890625 L 1.421875 -13.25 Z M 3.15625 -13.25 "/></g></g><g style="fill:#2e2e2d;fill-opacity:1;"><g transform="translate(282.661779, 422.953514)"><path style="stroke:none" d="M 10.328125 -9.375 C 10.328125 -8.269531 9.945312 -7.351562 9.1875 -6.625 C 8.4375 -5.894531 7.289062 -5.53125 5.75 -5.53125 L 3.1875 -5.53125 L 3.1875 0 L 1.46875 0 L 1.46875 -13.25 L 5.75 -13.25 C 7.238281 -13.25 8.375 -12.890625 9.15625 -12.171875 C 9.9375 -11.453125 10.328125 -10.519531 10.328125 -9.375 Z M 5.75 -6.953125 C 6.707031 -6.953125 7.414062 -7.160156 7.875 -7.578125 C 8.332031 -8.003906 8.5625 -8.601562 8.5625 -9.375 C 8.5625 -11.007812 7.625 -11.828125 5.75 -11.828125 L 3.1875 -11.828125 L 3.1875 -6.953125 Z M 5.75 -6.953125 "/></g></g><g style="fill:#2e2e2d;fill-opacity:1;"><g transform="translate(70.520233, 161.322581)"><path style="stroke:none" d="M 0.375 -3.46875 L 2.703125 -7.484375 L 3.921875 -6.78125 L 0.734375 -1.265625 L -10.734375 -7.90625 L -9.875 -9.40625 Z M 0.375 -3.46875 "/></g></g><g style="fill:#2e2e2d;fill-opacity:1;"><g transform="translate(75.107712, 153.390511)"><path style="stroke:none" d="M 3.859375 -6.390625 C 3.242188 -5.328125 2.429688 -4.503906 1.421875 -3.921875 C 0.421875 -3.335938 -0.675781 -3.046875 -1.875 -3.046875 C -3.070312 -3.054688 -4.226562 -3.382812 -5.34375 -4.03125 C -6.457031 -4.675781 -7.3125 -5.515625 -7.90625 -6.546875 C -8.507812 -7.578125 -8.804688 -8.675781 -8.796875 -9.84375 C -8.796875 -11.007812 -8.488281 -12.125 -7.875 -13.1875 C -7.25 -14.269531 -6.429688 -15.101562 -5.421875 -15.6875 C -4.410156 -16.269531 -3.3125 -16.554688 -2.125 -16.546875 C -0.945312 -16.535156 0.203125 -16.207031 1.328125 -15.5625 C 2.460938 -14.90625 3.328125 -14.066406 3.921875 -13.046875 C 4.523438 -12.023438 4.820312 -10.929688 4.8125 -9.765625 C 4.800781 -8.597656 4.484375 -7.472656 3.859375 -6.390625 Z M 2.546875 -7.15625 C 3.015625 -7.957031 3.25 -8.785156 3.25 -9.640625 C 3.25 -10.503906 3.007812 -11.316406 2.53125 -12.078125 C 2.050781 -12.847656 1.351562 -13.5 0.4375 -14.03125 C -0.476562 -14.5625 -1.382812 -14.84375 -2.28125 -14.875 C -3.1875 -14.90625 -4.007812 -14.707031 -4.75 -14.28125 C -5.5 -13.851562 -6.109375 -13.234375 -6.578125 -12.421875 C -7.046875 -11.609375 -7.273438 -10.773438 -7.265625 -9.921875 C -7.253906 -9.078125 -7.007812 -8.273438 -6.53125 -7.515625 C -6.0625 -6.753906 -5.367188 -6.109375 -4.453125 -5.578125 C -3.535156 -5.046875 -2.625 -4.757812 -1.71875 -4.71875 C -0.8125 -4.6875 0.0078125 -4.882812 0.75 -5.3125 C 1.488281 -5.738281 2.085938 -6.351562 2.546875 -7.15625 Z M 2.546875 -7.15625 "/></g></g><g style="fill:#2e2e2d;fill-opacity:1;"><g transform="translate(83.064299, 139.633019)"><path style="stroke:none" d="M 3.859375 -6.390625 C 3.242188 -5.328125 2.429688 -4.503906 1.421875 -3.921875 C 0.421875 -3.335938 -0.675781 -3.046875 -1.875 -3.046875 C -3.070312 -3.054688 -4.226562 -3.382812 -5.34375 -4.03125 C -6.457031 -4.675781 -7.3125 -5.515625 -7.90625 -6.546875 C -8.507812 -7.578125 -8.804688 -8.675781 -8.796875 -9.84375 C -8.796875 -11.007812 -8.488281 -12.125 -7.875 -13.1875 C -7.25 -14.269531 -6.429688 -15.101562 -5.421875 -15.6875 C -4.410156 -16.269531 -3.3125 -16.554688 -2.125 -16.546875 C -0.945312 -16.535156 0.203125 -16.207031 1.328125 -15.5625 C 2.460938 -14.90625 3.328125 -14.066406 3.921875 -13.046875 C 4.523438 -12.023438 4.820312 -10.929688 4.8125 -9.765625 C 4.800781 -8.597656 4.484375 -7.472656 3.859375 -6.390625 Z M 2.546875 -7.15625 C 3.015625 -7.957031 3.25 -8.785156 3.25 -9.640625 C 3.25 -10.503906 3.007812 -11.316406 2.53125 -12.078125 C 2.050781 -12.847656 1.351562 -13.5 0.4375 -14.03125 C -0.476562 -14.5625 -1.382812 -14.84375 -2.28125 -14.875 C -3.1875 -14.90625 -4.007812 -14.707031 -4.75 -14.28125 C -5.5 -13.851562 -6.109375 -13.234375 -6.578125 -12.421875 C -7.046875 -11.609375 -7.273438 -10.773438 -7.265625 -9.921875 C -7.253906 -9.078125 -7.007812 -8.273438 -6.53125 -7.515625 C -6.0625 -6.753906 -5.367188 -6.109375 -4.453125 -5.578125 C -3.535156 -5.046875 -2.625 -4.757812 -1.71875 -4.71875 C -0.8125 -4.6875 0.0078125 -4.882812 0.75 -5.3125 C 1.488281 -5.738281 2.085938 -6.351562 2.546875 -7.15625 Z M 2.546875 -7.15625 "/></g></g><g style="fill:#2e2e2d;fill-opacity:1;"><g transform="translate(91.020886, 125.875527)"><path style="stroke:none" d="M 4.328125 -7.5 L -3.640625 -5.796875 L 1.59375 -2.765625 L 0.734375 -1.265625 L -10.734375 -7.90625 L -9.875 -9.40625 L -4.5625 -6.328125 L -7.125 -14.140625 L -6.03125 -16.046875 L -3.3125 -7.5 L 5.46875 -9.453125 Z M 4.328125 -7.5 "/></g></g><g style="fill:#2e2e2d;fill-opacity:1;"><g transform="translate(97.197744, 115.195309)"><path style="stroke:none" d=""/></g></g><g style="fill:#2e2e2d;fill-opacity:1;"><g transform="translate(100.214872, 109.978484)"><path style="stroke:none" d="M -9.875 -9.40625 L 1.59375 -2.765625 L 0.734375 -1.265625 L -10.734375 -7.90625 Z M -9.875 -9.40625 "/></g></g><g style="fill:#2e2e2d;fill-opacity:1;"><g transform="translate(103.032134, 105.107242)"><path style="stroke:none" d="M 5.953125 -10.296875 L 5.078125 -8.796875 L -7.53125 -8.046875 L 1.59375 -2.765625 L 0.734375 -1.265625 L -10.75 -7.90625 L -9.890625 -9.40625 L 2.71875 -10.171875 L -6.40625 -15.4375 L -5.53125 -16.9375 Z M 5.953125 -10.296875 "/></g></g><g style="fill:#2e2e2d;fill-opacity:1;"><g transform="translate(190.77746, 33.96315)"><path style="stroke:none" d="M 3.1875 -1.40625 L 7.828125 -1.40625 L 7.828125 0 L 1.46875 0 L 1.46875 -13.25 L 3.1875 -13.25 Z M 3.1875 -1.40625 "/></g></g><g style="fill:#2e2e2d;fill-opacity:1;"><g transform="translate(199.940577, 33.96315)"><path style="stroke:none" d="M 7.46875 0.140625 C 6.238281 0.140625 5.117188 -0.144531 4.109375 -0.71875 C 3.097656 -1.300781 2.296875 -2.109375 1.703125 -3.140625 C 1.109375 -4.179688 0.8125 -5.347656 0.8125 -6.640625 C 0.8125 -7.929688 1.109375 -9.09375 1.703125 -10.125 C 2.296875 -11.15625 3.097656 -11.957031 4.109375 -12.53125 C 5.117188 -13.113281 6.238281 -13.40625 7.46875 -13.40625 C 8.71875 -13.40625 9.847656 -13.113281 10.859375 -12.53125 C 11.867188 -11.957031 12.664062 -11.15625 13.25 -10.125 C 13.832031 -9.101562 14.125 -7.941406 14.125 -6.640625 C 14.125 -5.328125 13.832031 -4.15625 13.25 -3.125 C 12.664062 -2.101562 11.867188 -1.300781 10.859375 -0.71875 C 9.847656 -0.144531 8.71875 0.140625 7.46875 0.140625 Z M 7.46875 -1.375 C 8.394531 -1.375 9.226562 -1.585938 9.96875 -2.015625 C 10.71875 -2.441406 11.300781 -3.054688 11.71875 -3.859375 C 12.144531 -4.660156 12.359375 -5.585938 12.359375 -6.640625 C 12.359375 -7.703125 12.144531 -8.628906 11.71875 -9.421875 C 11.300781 -10.210938 10.722656 -10.820312 9.984375 -11.25 C 9.242188 -11.6875 8.40625 -11.90625 7.46875 -11.90625 C 6.53125 -11.90625 5.691406 -11.6875 4.953125 -11.25 C 4.222656 -10.820312 3.644531 -10.210938 3.21875 -9.421875 C 2.800781 -8.628906 2.59375 -7.703125 2.59375 -6.640625 C 2.59375 -5.585938 2.800781 -4.660156 3.21875 -3.859375 C 3.644531 -3.054688 4.226562 -2.441406 4.96875 -2.015625 C 5.707031 -1.585938 6.539062 -1.375 7.46875 -1.375 Z M 7.46875 -1.375 "/></g></g><g style="fill:#2e2e2d;fill-opacity:1;"><g transform="translate(215.833212, 33.96315)"><path style="stroke:none" d="M 7.46875 0.140625 C 6.238281 0.140625 5.117188 -0.144531 4.109375 -0.71875 C 3.097656 -1.300781 2.296875 -2.109375 1.703125 -3.140625 C 1.109375 -4.179688 0.8125 -5.347656 0.8125 -6.640625 C 0.8125 -7.929688 1.109375 -9.09375 1.703125 -10.125 C 2.296875 -11.15625 3.097656 -11.957031 4.109375 -12.53125 C 5.117188 -13.113281 6.238281 -13.40625 7.46875 -13.40625 C 8.71875 -13.40625 9.847656 -13.113281 10.859375 -12.53125 C 11.867188 -11.957031 12.664062 -11.15625 13.25 -10.125 C 13.832031 -9.101562 14.125 -7.941406 14.125 -6.640625 C 14.125 -5.328125 13.832031 -4.15625 13.25 -3.125 C 12.664062 -2.101562 11.867188 -1.300781 10.859375 -0.71875 C 9.847656 -0.144531 8.71875 0.140625 7.46875 0.140625 Z M 7.46875 -1.375 C 8.394531 -1.375 9.226562 -1.585938 9.96875 -2.015625 C 10.71875 -2.441406 11.300781 -3.054688 11.71875 -3.859375 C 12.144531 -4.660156 12.359375 -5.585938 12.359375 -6.640625 C 12.359375 -7.703125 12.144531 -8.628906 11.71875 -9.421875 C 11.300781 -10.210938 10.722656 -10.820312 9.984375 -11.25 C 9.242188 -11.6875 8.40625 -11.90625 7.46875 -11.90625 C 6.53125 -11.90625 5.691406 -11.6875 4.953125 -11.25 C 4.222656 -10.820312 3.644531 -10.210938 3.21875 -9.421875 C 2.800781 -8.628906 2.59375 -7.703125 2.59375 -6.640625 C 2.59375 -5.585938 2.800781 -4.660156 3.21875 -3.859375 C 3.644531 -3.054688 4.226562 -2.441406 4.96875 -2.015625 C 5.707031 -1.585938 6.539062 -1.375 7.46875 -1.375 Z M 7.46875 -1.375 "/></g></g><g style="fill:#2e2e2d;fill-opacity:1;"><g transform="translate(231.725848, 33.96315)"><path style="stroke:none" d="M 8.65625 0 L 3.1875 -6.046875 L 3.1875 0 L 1.46875 0 L 1.46875 -13.25 L 3.1875 -13.25 L 3.1875 -7.109375 L 8.671875 -13.25 L 10.859375 -13.25 L 4.84375 -6.625 L 10.921875 0 Z M 8.65625 0 "/></g></g><g style="fill:#2e2e2d;fill-opacity:1;"><g transform="translate(244.063621, 33.96315)"><path style="stroke:none" d=""/></g></g><g style="fill:#2e2e2d;fill-opacity:1;"><g transform="translate(250.09009, 33.96315)"><path style="stroke:none" d="M 5.59375 -13.25 C 7.039062 -13.25 8.289062 -12.976562 9.34375 -12.4375 C 10.40625 -11.90625 11.21875 -11.140625 11.78125 -10.140625 C 12.34375 -9.140625 12.625 -7.957031 12.625 -6.59375 C 12.625 -5.238281 12.34375 -4.0625 11.78125 -3.0625 C 11.21875 -2.070312 10.40625 -1.3125 9.34375 -0.78125 C 8.289062 -0.257812 7.039062 0 5.59375 0 L 1.46875 0 L 1.46875 -13.25 Z M 5.59375 -1.421875 C 7.300781 -1.421875 8.601562 -1.875 9.5 -2.78125 C 10.40625 -3.6875 10.859375 -4.957031 10.859375 -6.59375 C 10.859375 -8.25 10.40625 -9.535156 9.5 -10.453125 C 8.59375 -11.378906 7.289062 -11.84375 5.59375 -11.84375 L 3.1875 -11.84375 L 3.1875 -1.421875 Z M 5.59375 -1.421875 "/></g></g><g style="fill:#2e2e2d;fill-opacity:1;"><g transform="translate(264.480944, 33.96315)"><path style="stroke:none" d="M 7.46875 0.140625 C 6.238281 0.140625 5.117188 -0.144531 4.109375 -0.71875 C 3.097656 -1.300781 2.296875 -2.109375 1.703125 -3.140625 C 1.109375 -4.179688 0.8125 -5.347656 0.8125 -6.640625 C 0.8125 -7.929688 1.109375 -9.09375 1.703125 -10.125 C 2.296875 -11.15625 3.097656 -11.957031 4.109375 -12.53125 C 5.117188 -13.113281 6.238281 -13.40625 7.46875 -13.40625 C 8.71875 -13.40625 9.847656 -13.113281 10.859375 -12.53125 C 11.867188 -11.957031 12.664062 -11.15625 13.25 -10.125 C 13.832031 -9.101562 14.125 -7.941406 14.125 -6.640625 C 14.125 -5.328125 13.832031 -4.15625 13.25 -3.125 C 12.664062 -2.101562 11.867188 -1.300781 10.859375 -0.71875 C 9.847656 -0.144531 8.71875 0.140625 7.46875 0.140625 Z M 7.46875 -1.375 C 8.394531 -1.375 9.226562 -1.585938 9.96875 -2.015625 C 10.71875 -2.441406 11.300781 -3.054688 11.71875 -3.859375 C 12.144531 -4.660156 12.359375 -5.585938 12.359375 -6.640625 C 12.359375 -7.703125 12.144531 -8.628906 11.71875 -9.421875 C 11.300781 -10.210938 10.722656 -10.820312 9.984375 -11.25 C 9.242188 -11.6875 8.40625 -11.90625 7.46875 -11.90625 C 6.53125 -11.90625 5.691406 -11.6875 4.953125 -11.25 C 4.222656 -10.820312 3.644531 -10.210938 3.21875 -9.421875 C 2.800781 -8.628906 2.59375 -7.703125 2.59375 -6.640625 C 2.59375 -5.585938 2.800781 -4.660156 3.21875 -3.859375 C 3.644531 -3.054688 4.226562 -2.441406 4.96875 -2.015625 C 5.707031 -1.585938 6.539062 -1.375 7.46875 -1.375 Z M 7.46875 -1.375 "/></g></g><g style="fill:#2e2e2d;fill-opacity:1;"><g transform="translate(280.37358, 33.96315)"><path style="stroke:none" d="M 18.125 -13.25 L 14.28125 0 L 12.34375 0 L 9.265625 -10.671875 L 6.0625 0 L 4.140625 0.015625 L 0.4375 -13.25 L 2.28125 -13.25 L 5.171875 -2.015625 L 8.359375 -13.25 L 10.3125 -13.25 L 13.34375 -2.046875 L 16.265625 -13.25 Z M 18.125 -13.25 "/></g></g><g style="fill:#2e2e2d;fill-opacity:1;"><g transform="translate(299.878121, 33.96315)"><path style="stroke:none" d="M 11.890625 0 L 10.15625 0 L 3.1875 -10.546875 L 3.1875 0 L 1.46875 0 L 1.46875 -13.265625 L 3.1875 -13.265625 L 10.15625 -2.734375 L 10.15625 -13.265625 L 11.890625 -13.265625 Z M 11.890625 0 "/></g></g><g style="fill:#2e2e2d;fill-opacity:1;"><g transform="translate(394.598446, 86.064267)"><path style="stroke:none" d="M 2.796875 2.0625 L 5.109375 6.09375 L 3.890625 6.796875 L 0.734375 1.28125 L 12.234375 -5.296875 L 13.078125 -3.8125 Z M 2.796875 2.0625 "/></g></g><g style="fill:#2e2e2d;fill-opacity:1;"><g transform="translate(399.147305, 94.018548)"><path style="stroke:none" d="M 3.578125 6.546875 C 2.972656 5.484375 2.671875 4.367188 2.671875 3.203125 C 2.671875 2.035156 2.972656 0.941406 3.578125 -0.078125 C 4.179688 -1.109375 5.046875 -1.945312 6.171875 -2.59375 C 7.296875 -3.238281 8.445312 -3.554688 9.625 -3.546875 C 10.8125 -3.546875 11.910156 -3.25 12.921875 -2.65625 C 13.929688 -2.0625 14.738281 -1.234375 15.34375 -0.171875 C 15.96875 0.910156 16.273438 2.035156 16.265625 3.203125 C 16.265625 4.367188 15.960938 5.457031 15.359375 6.46875 C 14.765625 7.488281 13.90625 8.320312 12.78125 8.96875 C 11.644531 9.625 10.484375 9.953125 9.296875 9.953125 C 8.117188 9.953125 7.023438 9.65625 6.015625 9.0625 C 5.015625 8.46875 4.203125 7.628906 3.578125 6.546875 Z M 4.890625 5.796875 C 5.347656 6.597656 5.945312 7.21875 6.6875 7.65625 C 7.4375 8.09375 8.265625 8.296875 9.171875 8.265625 C 10.078125 8.234375 10.988281 7.957031 11.90625 7.4375 C 12.820312 6.90625 13.515625 6.257812 13.984375 5.5 C 14.460938 4.738281 14.707031 3.929688 14.71875 3.078125 C 14.726562 2.222656 14.5 1.390625 14.03125 0.578125 C 13.570312 -0.234375 12.972656 -0.851562 12.234375 -1.28125 C 11.492188 -1.707031 10.671875 -1.90625 9.765625 -1.875 C 8.867188 -1.851562 7.960938 -1.578125 7.046875 -1.046875 C 6.128906 -0.523438 5.429688 0.113281 4.953125 0.875 C 4.472656 1.644531 4.226562 2.457031 4.21875 3.3125 C 4.207031 4.164062 4.429688 4.992188 4.890625 5.796875 Z M 4.890625 5.796875 "/></g></g><g style="fill:#2e2e2d;fill-opacity:1;"><g transform="translate(407.036909, 107.814563)"><path style="stroke:none" d="M 3.578125 6.546875 C 2.972656 5.484375 2.671875 4.367188 2.671875 3.203125 C 2.671875 2.035156 2.972656 0.941406 3.578125 -0.078125 C 4.179688 -1.109375 5.046875 -1.945312 6.171875 -2.59375 C 7.296875 -3.238281 8.445312 -3.554688 9.625 -3.546875 C 10.8125 -3.546875 11.910156 -3.25 12.921875 -2.65625 C 13.929688 -2.0625 14.738281 -1.234375 15.34375 -0.171875 C 15.96875 0.910156 16.273438 2.035156 16.265625 3.203125 C 16.265625 4.367188 15.960938 5.457031 15.359375 6.46875 C 14.765625 7.488281 13.90625 8.320312 12.78125 8.96875 C 11.644531 9.625 10.484375 9.953125 9.296875 9.953125 C 8.117188 9.953125 7.023438 9.65625 6.015625 9.0625 C 5.015625 8.46875 4.203125 7.628906 3.578125 6.546875 Z M 4.890625 5.796875 C 5.347656 6.597656 5.945312 7.21875 6.6875 7.65625 C 7.4375 8.09375 8.265625 8.296875 9.171875 8.265625 C 10.078125 8.234375 10.988281 7.957031 11.90625 7.4375 C 12.820312 6.90625 13.515625 6.257812 13.984375 5.5 C 14.460938 4.738281 14.707031 3.929688 14.71875 3.078125 C 14.726562 2.222656 14.5 1.390625 14.03125 0.578125 C 13.570312 -0.234375 12.972656 -0.851562 12.234375 -1.28125 C 11.492188 -1.707031 10.671875 -1.90625 9.765625 -1.875 C 8.867188 -1.851562 7.960938 -1.578125 7.046875 -1.046875 C 6.128906 -0.523438 5.429688 0.113281 4.953125 0.875 C 4.472656 1.644531 4.226562 2.457031 4.21875 3.3125 C 4.207031 4.164062 4.429688 4.992188 4.890625 5.796875 Z M 4.890625 5.796875 "/></g></g><g style="fill:#2e2e2d;fill-opacity:1;"><g transform="translate(414.926514, 121.610577)"><path style="stroke:none" d="M 4.296875 7.515625 L 6.828125 -0.234375 L 1.578125 2.765625 L 0.734375 1.28125 L 12.234375 -5.296875 L 13.078125 -3.8125 L 7.75 -0.765625 L 15.8125 0.953125 L 16.890625 2.84375 L 8.15625 0.921875 L 5.421875 9.484375 Z M 4.296875 7.515625 "/></g></g><g style="fill:#2e2e2d;fill-opacity:1;"><g transform="translate(421.051373, 132.320701)"><path style="stroke:none" d=""/></g></g><g style="fill:#2e2e2d;fill-opacity:1;"><g transform="translate(424.043101, 137.552134)"><path style="stroke:none" d="M 3.578125 6.546875 C 2.972656 5.484375 2.671875 4.367188 2.671875 3.203125 C 2.671875 2.035156 2.972656 0.941406 3.578125 -0.078125 C 4.179688 -1.109375 5.046875 -1.945312 6.171875 -2.59375 C 7.296875 -3.238281 8.445312 -3.554688 9.625 -3.546875 C 10.8125 -3.546875 11.910156 -3.25 12.921875 -2.65625 C 13.929688 -2.0625 14.738281 -1.234375 15.34375 -0.171875 C 15.96875 0.910156 16.273438 2.035156 16.265625 3.203125 C 16.265625 4.367188 15.960938 5.457031 15.359375 6.46875 C 14.765625 7.488281 13.90625 8.320312 12.78125 8.96875 C 11.644531 9.625 10.484375 9.953125 9.296875 9.953125 C 8.117188 9.953125 7.023438 9.65625 6.015625 9.0625 C 5.015625 8.46875 4.203125 7.628906 3.578125 6.546875 Z M 4.890625 5.796875 C 5.347656 6.597656 5.945312 7.21875 6.6875 7.65625 C 7.4375 8.09375 8.265625 8.296875 9.171875 8.265625 C 10.078125 8.234375 10.988281 7.957031 11.90625 7.4375 C 12.820312 6.90625 13.515625 6.257812 13.984375 5.5 C 14.460938 4.738281 14.707031 3.929688 14.71875 3.078125 C 14.726562 2.222656 14.5 1.390625 14.03125 0.578125 C 13.570312 -0.234375 12.972656 -0.851562 12.234375 -1.28125 C 11.492188 -1.707031 10.671875 -1.90625 9.765625 -1.875 C 8.867188 -1.851562 7.960938 -1.578125 7.046875 -1.046875 C 6.128906 -0.523438 5.429688 0.113281 4.953125 0.875 C 4.472656 1.644531 4.226562 2.457031 4.21875 3.3125 C 4.207031 4.164062 4.429688 4.992188 4.890625 5.796875 Z M 4.890625 5.796875 "/></g></g><g style="fill:#2e2e2d;fill-opacity:1;"><g transform="translate(431.932706, 151.348149)"><path style="stroke:none" d="M 13.0625 -3.84375 L 5.796875 0.3125 C 4.765625 0.90625 4.144531 1.59375 3.9375 2.375 C 3.726562 3.164062 3.878906 4.003906 4.390625 4.890625 C 4.898438 5.773438 5.539062 6.320312 6.3125 6.53125 C 7.09375 6.75 8 6.5625 9.03125 5.96875 L 16.296875 1.8125 L 17.15625 3.328125 L 9.90625 7.484375 C 8.945312 8.023438 8.03125 8.289062 7.15625 8.28125 C 6.28125 8.269531 5.492188 8.023438 4.796875 7.546875 C 4.097656 7.078125 3.519531 6.4375 3.0625 5.625 C 2.59375 4.8125 2.332031 3.984375 2.28125 3.140625 C 2.226562 2.304688 2.421875 1.507812 2.859375 0.75 C 3.296875 0 3.992188 -0.644531 4.953125 -1.1875 L 12.203125 -5.34375 Z M 13.0625 -3.84375 "/></g></g><g style="fill:#2e2e2d;fill-opacity:1;"><g transform="translate(438.77479, 163.312436)"><path style="stroke:none" d="M 16.28125 1.78125 L 15.0625 2.484375 L 13.265625 -0.65625 L 2.984375 5.21875 L 2.125 3.71875 L 12.40625 -2.15625 L 10.59375 -5.3125 L 11.8125 -6.015625 Z M 16.28125 1.78125 "/></g></g><g style="fill:#2e2e2d;fill-opacity:1;"><g transform="translate(220.627169, 202.723252)"><path style="stroke:none" d="M 9.65625 0 C 9.351562 0 9.109375 -0.09375 8.921875 -0.28125 C 8.742188 -0.476562 8.65625 -0.703125 8.65625 -0.953125 L 8.65625 -21.3125 L 10.640625 -21.3125 L 10.640625 -0.953125 C 10.640625 -0.703125 10.539062 -0.476562 10.34375 -0.28125 C 10.15625 -0.09375 9.925781 0 9.65625 0 Z M 2.046875 -20.546875 C 1.785156 -20.546875 1.5625 -20.628906 1.375 -20.796875 C 1.1875 -20.972656 1.09375 -21.195312 1.09375 -21.46875 C 1.09375 -21.726562 1.1875 -21.941406 1.375 -22.109375 C 1.5625 -22.273438 1.785156 -22.359375 2.046875 -22.359375 L 17.25 -22.359375 C 17.507812 -22.359375 17.734375 -22.273438 17.921875 -22.109375 C 18.117188 -21.941406 18.21875 -21.71875 18.21875 -21.4375 C 18.21875 -21.164062 18.117188 -20.945312 17.921875 -20.78125 C 17.734375 -20.625 17.507812 -20.546875 17.25 -20.546875 Z M 2.046875 -20.546875 "/></g></g><g style="fill:#2e2e2d;fill-opacity:1;"><g transform="translate(239.928895, 202.723252)"><path style="stroke:none" d="M 4.03125 -22.359375 C 4.28125 -22.359375 4.503906 -22.265625 4.703125 -22.078125 C 4.910156 -21.890625 5.015625 -21.65625 5.015625 -21.375 L 5.015625 -0.984375 C 4.992188 -0.710938 4.878906 -0.476562 4.671875 -0.28125 C 4.472656 -0.09375 4.25 0 4 0 C 3.695312 0 3.453125 -0.09375 3.265625 -0.28125 C 3.085938 -0.476562 3 -0.710938 3 -0.984375 L 3 -21.375 C 3 -21.65625 3.09375 -21.890625 3.28125 -22.078125 C 3.476562 -22.265625 3.726562 -22.359375 4.03125 -22.359375 Z M 19.015625 -22.359375 C 19.304688 -22.359375 19.539062 -22.265625 19.71875 -22.078125 C 19.90625 -21.890625 20 -21.65625 20 -21.375 L 20 -0.984375 C 19.976562 -0.710938 19.875 -0.476562 19.6875 -0.28125 C 19.507812 -0.09375 19.273438 0 18.984375 0 C 18.703125 0 18.460938 -0.09375 18.265625 -0.28125 C 18.078125 -0.476562 17.984375 -0.710938 17.984375 -0.984375 L 17.984375 -21.375 C 17.984375 -21.65625 18.082031 -21.890625 18.28125 -22.078125 C 18.488281 -22.265625 18.734375 -22.359375 19.015625 -22.359375 Z M 3.859375 -12.359375 L 19.046875 -12.359375 L 19.015625 -10.515625 L 3.734375 -10.515625 Z M 3.859375 -12.359375 "/></g></g><g style="fill:#2e2e2d;fill-opacity:1;"><g transform="translate(262.937579, 202.723252)"><path style="stroke:none" d="M 3.96875 -22.359375 L 15.6875 -22.359375 C 15.945312 -22.359375 16.171875 -22.269531 16.359375 -22.09375 C 16.546875 -21.914062 16.640625 -21.6875 16.640625 -21.40625 C 16.640625 -21.132812 16.546875 -20.910156 16.359375 -20.734375 C 16.171875 -20.566406 15.945312 -20.484375 15.6875 -20.484375 L 4.703125 -20.484375 L 5.015625 -21.03125 L 5.015625 -12.046875 L 4.671875 -12.46875 L 14.25 -12.46875 C 14.507812 -12.46875 14.734375 -12.367188 14.921875 -12.171875 C 15.109375 -11.984375 15.203125 -11.757812 15.203125 -11.5 C 15.203125 -11.226562 15.109375 -11.003906 14.921875 -10.828125 C 14.734375 -10.660156 14.507812 -10.578125 14.25 -10.578125 L 4.734375 -10.578125 L 5.015625 -10.890625 L 5.015625 -1.6875 L 4.859375 -1.890625 L 15.6875 -1.890625 C 15.945312 -1.890625 16.171875 -1.789062 16.359375 -1.59375 C 16.546875 -1.40625 16.640625 -1.179688 16.640625 -0.921875 C 16.640625 -0.648438 16.546875 -0.425781 16.359375 -0.25 C 16.171875 -0.0820312 15.945312 0 15.6875 0 L 3.96875 0 C 3.707031 0 3.476562 -0.09375 3.28125 -0.28125 C 3.09375 -0.476562 3 -0.703125 3 -0.953125 L 3 -21.40625 C 3 -21.664062 3.09375 -21.890625 3.28125 -22.078125 C 3.476562 -22.265625 3.707031 -22.359375 3.96875 -22.359375 Z M 3.96875 -22.359375 "/></g></g><g style="fill:#2e2e2d;fill-opacity:1;"><g transform="translate(155.765889, 246.923973)"><path style="stroke:none" d="M 28.890625 -22.4375 C 29.160156 -22.4375 29.394531 -22.351562 29.59375 -22.1875 C 29.800781 -22.03125 29.90625 -21.789062 29.90625 -21.46875 C 29.90625 -21.363281 29.882812 -21.226562 29.84375 -21.0625 L 22.78125 -0.609375 C 22.71875 -0.410156 22.597656 -0.257812 22.421875 -0.15625 C 22.253906 -0.0507812 22.085938 0 21.921875 0 C 21.703125 0 21.507812 -0.046875 21.34375 -0.140625 C 21.175781 -0.234375 21.050781 -0.390625 20.96875 -0.609375 L 15.3125 -14.609375 L 15.5625 -14.53125 L 9.90625 -0.609375 C 9.820312 -0.390625 9.6875 -0.234375 9.5 -0.140625 C 9.320312 -0.046875 9.140625 0 8.953125 0 C 8.773438 0 8.609375 -0.0507812 8.453125 -0.15625 C 8.296875 -0.257812 8.179688 -0.410156 8.109375 -0.609375 L 1.046875 -21.0625 C 0.984375 -21.226562 0.953125 -21.351562 0.953125 -21.4375 C 0.953125 -21.757812 1.066406 -22.003906 1.296875 -22.171875 C 1.535156 -22.347656 1.773438 -22.4375 2.015625 -22.4375 C 2.222656 -22.4375 2.410156 -22.378906 2.578125 -22.265625 C 2.753906 -22.160156 2.875 -22.015625 2.9375 -21.828125 L 9.359375 -3.09375 L 9.015625 -3.0625 L 14.578125 -16.9375 C 14.640625 -17.125 14.75 -17.273438 14.90625 -17.390625 C 15.0625 -17.515625 15.25 -17.566406 15.46875 -17.546875 C 15.675781 -17.566406 15.859375 -17.515625 16.015625 -17.390625 C 16.179688 -17.273438 16.304688 -17.125 16.390625 -16.9375 L 21.890625 -3.125 L 21.53125 -3 L 27.921875 -21.828125 C 27.984375 -22.015625 28.097656 -22.160156 28.265625 -22.265625 C 28.441406 -22.378906 28.648438 -22.4375 28.890625 -22.4375 Z M 28.890625 -22.4375 "/></g></g><g style="fill:#2e2e2d;fill-opacity:1;"><g transform="translate(185.932768, 246.923973)"><path style="stroke:none" d="M 10.484375 -19.90625 L 2.71875 -0.609375 C 2.632812 -0.390625 2.515625 -0.226562 2.359375 -0.125 C 2.210938 -0.0195312 2.046875 0.03125 1.859375 0.03125 C 1.554688 0.03125 1.328125 -0.046875 1.171875 -0.203125 C 1.023438 -0.367188 0.941406 -0.566406 0.921875 -0.796875 C 0.898438 -0.898438 0.910156 -1.03125 0.953125 -1.1875 L 9.390625 -21.828125 C 9.492188 -22.054688 9.625 -22.21875 9.78125 -22.3125 C 9.945312 -22.414062 10.140625 -22.46875 10.359375 -22.46875 C 10.566406 -22.46875 10.75 -22.40625 10.90625 -22.28125 C 11.070312 -22.164062 11.195312 -22.015625 11.28125 -21.828125 L 19.6875 -1.28125 C 19.726562 -1.15625 19.75 -1.023438 19.75 -0.890625 C 19.75 -0.597656 19.648438 -0.367188 19.453125 -0.203125 C 19.265625 -0.046875 19.039062 0.03125 18.78125 0.03125 C 18.570312 0.03125 18.382812 -0.0234375 18.21875 -0.140625 C 18.0625 -0.253906 17.941406 -0.410156 17.859375 -0.609375 L 9.90625 -20.03125 Z M 4.5625 -6.453125 L 5.375 -8.34375 L 15.28125 -8.34375 L 15.65625 -6.453125 Z M 4.5625 -6.453125 "/></g></g><g style="fill:#2e2e2d;fill-opacity:1;"><g transform="translate(205.23438, 246.923973)"><path style="stroke:none" d="M 16.328125 -22.5 C 16.609375 -22.5 16.835938 -22.394531 17.015625 -22.1875 C 17.191406 -21.988281 17.28125 -21.769531 17.28125 -21.53125 C 17.28125 -21.425781 17.265625 -21.328125 17.234375 -21.234375 C 17.203125 -21.140625 17.15625 -21.035156 17.09375 -20.921875 L 9.578125 -10.609375 L 9.96875 -11.859375 L 9.96875 -0.953125 C 9.96875 -0.703125 9.867188 -0.476562 9.671875 -0.28125 C 9.484375 -0.09375 9.253906 0 8.984375 0 C 8.703125 0 8.46875 -0.09375 8.28125 -0.28125 C 8.101562 -0.476562 8.015625 -0.703125 8.015625 -0.953125 L 8.015625 -11.625 L 8.1875 -10.859375 L 0.859375 -20.859375 C 0.773438 -20.972656 0.710938 -21.085938 0.671875 -21.203125 C 0.628906 -21.316406 0.609375 -21.425781 0.609375 -21.53125 C 0.609375 -21.8125 0.71875 -22.039062 0.9375 -22.21875 C 1.164062 -22.40625 1.394531 -22.5 1.625 -22.5 C 1.945312 -22.5 2.210938 -22.347656 2.421875 -22.046875 L 9.296875 -12.6875 L 8.8125 -12.75 L 15.5 -22.046875 C 15.707031 -22.347656 15.984375 -22.5 16.328125 -22.5 Z M 16.328125 -22.5 "/></g></g><g style="fill:#2e2e2d;fill-opacity:1;"><g transform="translate(223.098066, 246.923973)"><path style="stroke:none" d="M 4 0 C 3.695312 0 3.453125 -0.09375 3.265625 -0.28125 C 3.085938 -0.476562 3 -0.703125 3 -0.953125 L 3 -21.40625 C 3 -21.664062 3.09375 -21.890625 3.28125 -22.078125 C 3.476562 -22.265625 3.707031 -22.359375 3.96875 -22.359375 L 15.59375 -22.359375 C 15.875 -22.359375 16.101562 -22.269531 16.28125 -22.09375 C 16.457031 -21.914062 16.546875 -21.6875 16.546875 -21.40625 C 16.546875 -21.15625 16.457031 -20.9375 16.28125 -20.75 C 16.101562 -20.570312 15.875 -20.484375 15.59375 -20.484375 L 4.828125 -20.484375 L 4.953125 -20.671875 L 4.953125 -12.171875 L 4.796875 -12.46875 L 14.15625 -12.46875 C 14.4375 -12.46875 14.664062 -12.375 14.84375 -12.1875 C 15.019531 -12.007812 15.109375 -11.789062 15.109375 -11.53125 C 15.109375 -11.257812 15.019531 -11.035156 14.84375 -10.859375 C 14.664062 -10.691406 14.4375 -10.609375 14.15625 -10.609375 L 4.734375 -10.609375 L 4.953125 -10.859375 L 4.953125 -0.953125 C 4.953125 -0.703125 4.859375 -0.476562 4.671875 -0.28125 C 4.492188 -0.09375 4.269531 0 4 0 Z M 4 0 "/></g></g><g style="fill:#2e2e2d;fill-opacity:1;"><g transform="translate(240.162758, 246.923973)"><path style="stroke:none" d="M 10.484375 -19.90625 L 2.71875 -0.609375 C 2.632812 -0.390625 2.515625 -0.226562 2.359375 -0.125 C 2.210938 -0.0195312 2.046875 0.03125 1.859375 0.03125 C 1.554688 0.03125 1.328125 -0.046875 1.171875 -0.203125 C 1.023438 -0.367188 0.941406 -0.566406 0.921875 -0.796875 C 0.898438 -0.898438 0.910156 -1.03125 0.953125 -1.1875 L 9.390625 -21.828125 C 9.492188 -22.054688 9.625 -22.21875 9.78125 -22.3125 C 9.945312 -22.414062 10.140625 -22.46875 10.359375 -22.46875 C 10.566406 -22.46875 10.75 -22.40625 10.90625 -22.28125 C 11.070312 -22.164062 11.195312 -22.015625 11.28125 -21.828125 L 19.6875 -1.28125 C 19.726562 -1.15625 19.75 -1.023438 19.75 -0.890625 C 19.75 -0.597656 19.648438 -0.367188 19.453125 -0.203125 C 19.265625 -0.046875 19.039062 0.03125 18.78125 0.03125 C 18.570312 0.03125 18.382812 -0.0234375 18.21875 -0.140625 C 18.0625 -0.253906 17.941406 -0.410156 17.859375 -0.609375 L 9.90625 -20.03125 Z M 4.5625 -6.453125 L 5.375 -8.34375 L 15.28125 -8.34375 L 15.65625 -6.453125 Z M 4.5625 -6.453125 "/></g></g><g style="fill:#2e2e2d;fill-opacity:1;"><g transform="translate(260.838624, 246.923973)"><path style="stroke:none" d="M 4.09375 0 C 3.769531 0 3.503906 -0.09375 3.296875 -0.28125 C 3.097656 -0.476562 3 -0.703125 3 -0.953125 L 3 -21.40625 C 3 -21.664062 3.09375 -21.890625 3.28125 -22.078125 C 3.476562 -22.265625 3.707031 -22.359375 3.96875 -22.359375 L 12.59375 -22.359375 C 13.800781 -22.359375 14.882812 -22.097656 15.84375 -21.578125 C 16.800781 -21.054688 17.550781 -20.335938 18.09375 -19.421875 C 18.644531 -18.503906 18.921875 -17.472656 18.921875 -16.328125 C 18.921875 -15.390625 18.75 -14.523438 18.40625 -13.734375 C 18.0625 -12.953125 17.582031 -12.285156 16.96875 -11.734375 C 16.351562 -11.191406 15.660156 -10.796875 14.890625 -10.546875 L 13.765625 -10.890625 C 14.554688 -10.828125 15.289062 -10.578125 15.96875 -10.140625 C 16.65625 -9.703125 17.207031 -9.101562 17.625 -8.34375 C 18.039062 -7.59375 18.257812 -6.6875 18.28125 -5.625 C 18.300781 -4.707031 18.347656 -3.992188 18.421875 -3.484375 C 18.492188 -2.972656 18.601562 -2.585938 18.75 -2.328125 C 18.90625 -2.078125 19.097656 -1.875 19.328125 -1.71875 C 19.546875 -1.59375 19.691406 -1.410156 19.765625 -1.171875 C 19.835938 -0.941406 19.8125 -0.722656 19.6875 -0.515625 C 19.601562 -0.335938 19.476562 -0.210938 19.3125 -0.140625 C 19.15625 -0.0664062 18.988281 -0.03125 18.8125 -0.03125 C 18.644531 -0.03125 18.476562 -0.0703125 18.3125 -0.15625 C 18.007812 -0.332031 17.703125 -0.597656 17.390625 -0.953125 C 17.085938 -1.316406 16.832031 -1.847656 16.625 -2.546875 C 16.425781 -3.253906 16.328125 -4.238281 16.328125 -5.5 C 16.328125 -6.320312 16.191406 -7 15.921875 -7.53125 C 15.660156 -8.070312 15.320312 -8.484375 14.90625 -8.765625 C 14.488281 -9.054688 14.03125 -9.257812 13.53125 -9.375 C 13.03125 -9.488281 12.554688 -9.546875 12.109375 -9.546875 L 4.671875 -9.546875 L 5.015625 -10 L 5.015625 -0.953125 C 5.015625 -0.703125 4.925781 -0.476562 4.75 -0.28125 C 4.582031 -0.09375 4.363281 0 4.09375 0 Z M 4.671875 -11.3125 L 12.6875 -11.3125 C 13.40625 -11.375 14.082031 -11.613281 14.71875 -12.03125 C 15.363281 -12.445312 15.882812 -13.015625 16.28125 -13.734375 C 16.675781 -14.460938 16.875 -15.304688 16.875 -16.265625 C 16.875 -17.472656 16.460938 -18.476562 15.640625 -19.28125 C 14.816406 -20.082031 13.75 -20.484375 12.4375 -20.484375 L 4.796875 -20.484375 L 5.015625 -20.921875 L 5.015625 -10.859375 Z M 4.671875 -11.3125 "/></g></g><g style="fill:#2e2e2d;fill-opacity:1;"><g transform="translate(282.24948, 246.923973)"><path style="stroke:none" d="M 3.96875 -22.359375 L 15.6875 -22.359375 C 15.945312 -22.359375 16.171875 -22.269531 16.359375 -22.09375 C 16.546875 -21.914062 16.640625 -21.6875 16.640625 -21.40625 C 16.640625 -21.132812 16.546875 -20.910156 16.359375 -20.734375 C 16.171875 -20.566406 15.945312 -20.484375 15.6875 -20.484375 L 4.703125 -20.484375 L 5.015625 -21.03125 L 5.015625 -12.046875 L 4.671875 -12.46875 L 14.25 -12.46875 C 14.507812 -12.46875 14.734375 -12.367188 14.921875 -12.171875 C 15.109375 -11.984375 15.203125 -11.757812 15.203125 -11.5 C 15.203125 -11.226562 15.109375 -11.003906 14.921875 -10.828125 C 14.734375 -10.660156 14.507812 -10.578125 14.25 -10.578125 L 4.734375 -10.578125 L 5.015625 -10.890625 L 5.015625 -1.6875 L 4.859375 -1.890625 L 15.6875 -1.890625 C 15.945312 -1.890625 16.171875 -1.789062 16.359375 -1.59375 C 16.546875 -1.40625 16.640625 -1.179688 16.640625 -0.921875 C 16.640625 -0.648438 16.546875 -0.425781 16.359375 -0.25 C 16.171875 -0.0820312 15.945312 0 15.6875 0 L 3.96875 0 C 3.707031 0 3.476562 -0.09375 3.28125 -0.28125 C 3.09375 -0.476562 3 -0.703125 3 -0.953125 L 3 -21.40625 C 3 -21.664062 3.09375 -21.890625 3.28125 -22.078125 C 3.476562 -22.265625 3.707031 -22.359375 3.96875 -22.359375 Z M 3.96875 -22.359375 "/></g></g><g style="fill:#2e2e2d;fill-opacity:1;"><g transform="translate(300.400779, 246.923973)"><path style="stroke:none" d="M 4.09375 0 C 3.769531 0 3.503906 -0.09375 3.296875 -0.28125 C 3.097656 -0.476562 3 -0.703125 3 -0.953125 L 3 -21.40625 C 3 -21.664062 3.09375 -21.890625 3.28125 -22.078125 C 3.476562 -22.265625 3.707031 -22.359375 3.96875 -22.359375 L 12.59375 -22.359375 C 13.800781 -22.359375 14.882812 -22.097656 15.84375 -21.578125 C 16.800781 -21.054688 17.550781 -20.335938 18.09375 -19.421875 C 18.644531 -18.503906 18.921875 -17.472656 18.921875 -16.328125 C 18.921875 -15.390625 18.75 -14.523438 18.40625 -13.734375 C 18.0625 -12.953125 17.582031 -12.285156 16.96875 -11.734375 C 16.351562 -11.191406 15.660156 -10.796875 14.890625 -10.546875 L 13.765625 -10.890625 C 14.554688 -10.828125 15.289062 -10.578125 15.96875 -10.140625 C 16.65625 -9.703125 17.207031 -9.101562 17.625 -8.34375 C 18.039062 -7.59375 18.257812 -6.6875 18.28125 -5.625 C 18.300781 -4.707031 18.347656 -3.992188 18.421875 -3.484375 C 18.492188 -2.972656 18.601562 -2.585938 18.75 -2.328125 C 18.90625 -2.078125 19.097656 -1.875 19.328125 -1.71875 C 19.546875 -1.59375 19.691406 -1.410156 19.765625 -1.171875 C 19.835938 -0.941406 19.8125 -0.722656 19.6875 -0.515625 C 19.601562 -0.335938 19.476562 -0.210938 19.3125 -0.140625 C 19.15625 -0.0664062 18.988281 -0.03125 18.8125 -0.03125 C 18.644531 -0.03125 18.476562 -0.0703125 18.3125 -0.15625 C 18.007812 -0.332031 17.703125 -0.597656 17.390625 -0.953125 C 17.085938 -1.316406 16.832031 -1.847656 16.625 -2.546875 C 16.425781 -3.253906 16.328125 -4.238281 16.328125 -5.5 C 16.328125 -6.320312 16.191406 -7 15.921875 -7.53125 C 15.660156 -8.070312 15.320312 -8.484375 14.90625 -8.765625 C 14.488281 -9.054688 14.03125 -9.257812 13.53125 -9.375 C 13.03125 -9.488281 12.554688 -9.546875 12.109375 -9.546875 L 4.671875 -9.546875 L 5.015625 -10 L 5.015625 -0.953125 C 5.015625 -0.703125 4.925781 -0.476562 4.75 -0.28125 C 4.582031 -0.09375 4.363281 0 4.09375 0 Z M 4.671875 -11.3125 L 12.6875 -11.3125 C 13.40625 -11.375 14.082031 -11.613281 14.71875 -12.03125 C 15.363281 -12.445312 15.882812 -13.015625 16.28125 -13.734375 C 16.675781 -14.460938 16.875 -15.304688 16.875 -16.265625 C 16.875 -17.472656 16.460938 -18.476562 15.640625 -19.28125 C 14.816406 -20.082031 13.75 -20.484375 12.4375 -20.484375 L 4.796875 -20.484375 L 5.015625 -20.921875 L 5.015625 -10.859375 Z M 4.671875 -11.3125 "/></g></g><g style="fill:#2e2e2d;fill-opacity:1;"><g transform="translate(321.811635, 246.923973)"><path style="stroke:none" d="M 4.765625 -20.296875 C 4.765625 -19.710938 4.59375 -19.148438 4.25 -18.609375 C 3.90625 -18.066406 3.492188 -17.617188 3.015625 -17.265625 C 2.535156 -16.921875 2.050781 -16.75 1.5625 -16.75 C 1.394531 -16.75 1.234375 -16.800781 1.078125 -16.90625 C 0.929688 -17.007812 0.859375 -17.203125 0.859375 -17.484375 C 0.859375 -17.773438 0.953125 -17.941406 1.140625 -17.984375 C 1.335938 -18.023438 1.597656 -18.125 1.921875 -18.28125 C 2.253906 -18.46875 2.515625 -18.6875 2.703125 -18.9375 C 2.898438 -19.195312 3 -19.5 3 -19.84375 C 3 -20.125 2.921875 -20.335938 2.765625 -20.484375 C 2.609375 -20.628906 2.421875 -20.703125 2.203125 -20.703125 C 2.054688 -20.703125 1.90625 -20.675781 1.75 -20.625 C 1.601562 -20.570312 1.476562 -20.503906 1.375 -20.421875 C 1.25 -20.523438 1.144531 -20.644531 1.0625 -20.78125 C 0.988281 -20.925781 0.953125 -21.09375 0.953125 -21.28125 C 0.992188 -21.644531 1.195312 -21.953125 1.5625 -22.203125 C 1.925781 -22.460938 2.332031 -22.59375 2.78125 -22.59375 C 3.351562 -22.59375 3.828125 -22.363281 4.203125 -21.90625 C 4.578125 -21.445312 4.765625 -20.910156 4.765625 -20.296875 Z M 4.765625 -20.296875 "/></g></g><g style="fill:#2e2e2d;fill-opacity:1;"><g transform="translate(328.011197, 246.923973)"><path style="stroke:none" d="M 9.171875 0.3125 C 7.546875 0.332031 6.132812 0.078125 4.9375 -0.453125 C 3.75 -0.984375 2.613281 -1.78125 1.53125 -2.84375 C 1.425781 -2.925781 1.335938 -3.03125 1.265625 -3.15625 C 1.191406 -3.289062 1.15625 -3.441406 1.15625 -3.609375 C 1.15625 -3.867188 1.253906 -4.101562 1.453125 -4.3125 C 1.648438 -4.53125 1.878906 -4.640625 2.140625 -4.640625 C 2.398438 -4.640625 2.632812 -4.53125 2.84375 -4.3125 C 3.675781 -3.414062 4.617188 -2.734375 5.671875 -2.265625 C 6.722656 -1.796875 7.859375 -1.5625 9.078125 -1.5625 C 10.097656 -1.5625 11.003906 -1.722656 11.796875 -2.046875 C 12.597656 -2.367188 13.234375 -2.828125 13.703125 -3.421875 C 14.171875 -4.015625 14.40625 -4.707031 14.40625 -5.5 C 14.40625 -6.476562 14.140625 -7.269531 13.609375 -7.875 C 13.078125 -8.476562 12.375 -8.976562 11.5 -9.375 C 10.625 -9.769531 9.65625 -10.128906 8.59375 -10.453125 C 7.71875 -10.703125 6.882812 -10.992188 6.09375 -11.328125 C 5.3125 -11.660156 4.609375 -12.066406 3.984375 -12.546875 C 3.367188 -13.023438 2.890625 -13.613281 2.546875 -14.3125 C 2.210938 -15.019531 2.046875 -15.875 2.046875 -16.875 C 2.046875 -18 2.34375 -19 2.9375 -19.875 C 3.53125 -20.75 4.375 -21.4375 5.46875 -21.9375 C 6.570312 -22.4375 7.847656 -22.6875 9.296875 -22.6875 C 10.554688 -22.6875 11.765625 -22.472656 12.921875 -22.046875 C 14.085938 -21.617188 15.007812 -20.988281 15.6875 -20.15625 C 16.007812 -19.820312 16.171875 -19.515625 16.171875 -19.234375 C 16.171875 -19.023438 16.0625 -18.8125 15.84375 -18.59375 C 15.632812 -18.382812 15.398438 -18.28125 15.140625 -18.28125 C 14.929688 -18.28125 14.753906 -18.351562 14.609375 -18.5 C 14.242188 -18.945312 13.78125 -19.34375 13.21875 -19.6875 C 12.664062 -20.039062 12.054688 -20.3125 11.390625 -20.5 C 10.722656 -20.695312 10.023438 -20.796875 9.296875 -20.796875 C 8.296875 -20.796875 7.394531 -20.640625 6.59375 -20.328125 C 5.800781 -20.023438 5.175781 -19.585938 4.71875 -19.015625 C 4.257812 -18.441406 4.03125 -17.75 4.03125 -16.9375 C 4.03125 -16.039062 4.285156 -15.304688 4.796875 -14.734375 C 5.304688 -14.160156 5.972656 -13.6875 6.796875 -13.3125 C 7.628906 -12.9375 8.515625 -12.585938 9.453125 -12.265625 C 10.367188 -12.015625 11.25 -11.722656 12.09375 -11.390625 C 12.9375 -11.054688 13.679688 -10.644531 14.328125 -10.15625 C 14.984375 -9.664062 15.492188 -9.046875 15.859375 -8.296875 C 16.234375 -7.554688 16.421875 -6.625 16.421875 -5.5 C 16.421875 -4.40625 16.113281 -3.421875 15.5 -2.546875 C 14.882812 -1.679688 14.035156 -0.992188 12.953125 -0.484375 C 11.878906 0.0234375 10.617188 0.289062 9.171875 0.3125 Z M 9.171875 0.3125 "/></g></g><g style="fill:#2e2e2d;fill-opacity:1;"><g transform="translate(203.806079, 291.124693)"><path style="stroke:none" d="M 13.03125 0.3125 C 11.394531 0.3125 9.875 0.0234375 8.46875 -0.546875 C 7.0625 -1.117188 5.84375 -1.921875 4.8125 -2.953125 C 3.78125 -3.984375 2.972656 -5.203125 2.390625 -6.609375 C 1.816406 -8.015625 1.53125 -9.539062 1.53125 -11.1875 C 1.53125 -12.820312 1.816406 -14.34375 2.390625 -15.75 C 2.972656 -17.15625 3.78125 -18.375 4.8125 -19.40625 C 5.84375 -20.445312 7.0625 -21.253906 8.46875 -21.828125 C 9.875 -22.398438 11.394531 -22.6875 13.03125 -22.6875 C 14.164062 -22.6875 15.257812 -22.550781 16.3125 -22.28125 C 17.363281 -22.019531 18.304688 -21.625 19.140625 -21.09375 C 19.285156 -20.976562 19.394531 -20.851562 19.46875 -20.71875 C 19.550781 -20.582031 19.59375 -20.441406 19.59375 -20.296875 C 19.59375 -19.992188 19.492188 -19.75 19.296875 -19.5625 C 19.109375 -19.382812 18.90625 -19.296875 18.6875 -19.296875 C 18.582031 -19.296875 18.484375 -19.3125 18.390625 -19.34375 C 18.296875 -19.375 18.207031 -19.410156 18.125 -19.453125 C 17.394531 -19.859375 16.601562 -20.175781 15.75 -20.40625 C 14.894531 -20.644531 13.988281 -20.765625 13.03125 -20.765625 C 11.195312 -20.765625 9.566406 -20.347656 8.140625 -19.515625 C 6.710938 -18.691406 5.59375 -17.554688 4.78125 -16.109375 C 3.976562 -14.660156 3.578125 -13.019531 3.578125 -11.1875 C 3.578125 -9.351562 3.976562 -7.710938 4.78125 -6.265625 C 5.59375 -4.816406 6.710938 -3.675781 8.140625 -2.84375 C 9.566406 -2.007812 11.195312 -1.59375 13.03125 -1.59375 C 13.988281 -1.59375 14.953125 -1.726562 15.921875 -2 C 16.890625 -2.28125 17.726562 -2.65625 18.4375 -3.125 L 18.28125 -2.453125 L 18.28125 -9.8125 L 18.75 -9.359375 L 13.234375 -9.359375 C 12.953125 -9.359375 12.710938 -9.453125 12.515625 -9.640625 C 12.328125 -9.835938 12.234375 -10.066406 12.234375 -10.328125 C 12.234375 -10.617188 12.328125 -10.847656 12.515625 -11.015625 C 12.710938 -11.191406 12.953125 -11.28125 13.234375 -11.28125 L 19.328125 -11.28125 C 19.609375 -11.28125 19.835938 -11.1875 20.015625 -11 C 20.203125 -10.820312 20.296875 -10.597656 20.296875 -10.328125 L 20.296875 -2.625 C 20.296875 -2.445312 20.25 -2.285156 20.15625 -2.140625 C 20.070312 -1.992188 19.957031 -1.863281 19.8125 -1.75 C 18.875 -1.113281 17.820312 -0.609375 16.65625 -0.234375 C 15.5 0.128906 14.289062 0.3125 13.03125 0.3125 Z M 13.03125 0.3125 "/></g></g><g style="fill:#2e2e2d;fill-opacity:1;"><g transform="translate(226.015849, 291.124693)"><path style="stroke:none" d="M 18.828125 -22.359375 C 19.117188 -22.359375 19.347656 -22.269531 19.515625 -22.09375 C 19.691406 -21.914062 19.78125 -21.6875 19.78125 -21.40625 L 19.78125 -8.1875 C 19.78125 -6.601562 19.40625 -5.171875 18.65625 -3.890625 C 17.914062 -2.617188 16.914062 -1.601562 15.65625 -0.84375 C 14.394531 -0.09375 12.976562 0.28125 11.40625 0.28125 C 9.832031 0.28125 8.410156 -0.09375 7.140625 -0.84375 C 5.867188 -1.601562 4.859375 -2.617188 4.109375 -3.890625 C 3.367188 -5.171875 3 -6.601562 3 -8.1875 L 3 -21.40625 C 3 -21.6875 3.085938 -21.914062 3.265625 -22.09375 C 3.453125 -22.269531 3.707031 -22.359375 4.03125 -22.359375 C 4.28125 -22.359375 4.5 -22.269531 4.6875 -22.09375 C 4.882812 -21.914062 4.984375 -21.6875 4.984375 -21.40625 L 4.984375 -8.1875 C 4.984375 -6.945312 5.273438 -5.835938 5.859375 -4.859375 C 6.441406 -3.878906 7.222656 -3.09375 8.203125 -2.5 C 9.191406 -1.914062 10.257812 -1.625 11.40625 -1.625 C 12.601562 -1.625 13.691406 -1.914062 14.671875 -2.5 C 15.648438 -3.09375 16.429688 -3.878906 17.015625 -4.859375 C 17.597656 -5.835938 17.890625 -6.945312 17.890625 -8.1875 L 17.890625 -21.40625 C 17.890625 -21.6875 17.972656 -21.914062 18.140625 -22.09375 C 18.316406 -22.269531 18.546875 -22.359375 18.828125 -22.359375 Z M 18.828125 -22.359375 "/></g></g><g style="fill:#2e2e2d;fill-opacity:1;"><g transform="translate(248.800844, 291.124693)"><path style="stroke:none" d="M 5.015625 -0.984375 C 4.992188 -0.710938 4.878906 -0.476562 4.671875 -0.28125 C 4.472656 -0.09375 4.25 0 4 0 C 3.695312 0 3.453125 -0.09375 3.265625 -0.28125 C 3.085938 -0.476562 3 -0.710938 3 -0.984375 L 3 -21.375 C 3 -21.65625 3.09375 -21.890625 3.28125 -22.078125 C 3.476562 -22.265625 3.726562 -22.359375 4.03125 -22.359375 C 4.28125 -22.359375 4.503906 -22.265625 4.703125 -22.078125 C 4.910156 -21.890625 5.015625 -21.65625 5.015625 -21.375 Z M 5.015625 -0.984375 "/></g></g><g style="fill:#2e2e2d;fill-opacity:1;"><g transform="translate(256.789972, 291.124693)"><path style="stroke:none" d="M 12.109375 -22.359375 C 13.679688 -22.359375 15.054688 -22.0625 16.234375 -21.46875 C 17.421875 -20.875 18.398438 -20.050781 19.171875 -19 C 19.941406 -17.945312 20.507812 -16.75 20.875 -15.40625 C 21.25 -14.0625 21.4375 -12.65625 21.4375 -11.1875 C 21.4375 -9.132812 21.097656 -7.257812 20.421875 -5.5625 C 19.753906 -3.875 18.734375 -2.523438 17.359375 -1.515625 C 15.992188 -0.503906 14.242188 0 12.109375 0 L 3.96875 0 C 3.707031 0 3.476562 -0.09375 3.28125 -0.28125 C 3.09375 -0.476562 3 -0.703125 3 -0.953125 L 3 -21.40625 C 3 -21.664062 3.09375 -21.890625 3.28125 -22.078125 C 3.476562 -22.265625 3.707031 -22.359375 3.96875 -22.359375 Z M 11.796875 -1.890625 C 13.597656 -1.890625 15.050781 -2.300781 16.15625 -3.125 C 17.269531 -3.957031 18.085938 -5.082031 18.609375 -6.5 C 19.128906 -7.914062 19.390625 -9.476562 19.390625 -11.1875 C 19.390625 -12.414062 19.242188 -13.585938 18.953125 -14.703125 C 18.671875 -15.828125 18.226562 -16.820312 17.625 -17.6875 C 17.019531 -18.550781 16.226562 -19.234375 15.25 -19.734375 C 14.28125 -20.234375 13.128906 -20.484375 11.796875 -20.484375 L 4.796875 -20.484375 L 5.015625 -20.765625 L 5.015625 -1.5625 L 4.828125 -1.890625 Z M 11.796875 -1.890625 "/></g></g><g style="fill:#2e2e2d;fill-opacity:1;"><g transform="translate(279.766705, 291.124693)"><path style="stroke:none" d="M 3.96875 -22.359375 L 15.6875 -22.359375 C 15.945312 -22.359375 16.171875 -22.269531 16.359375 -22.09375 C 16.546875 -21.914062 16.640625 -21.6875 16.640625 -21.40625 C 16.640625 -21.132812 16.546875 -20.910156 16.359375 -20.734375 C 16.171875 -20.566406 15.945312 -20.484375 15.6875 -20.484375 L 4.703125 -20.484375 L 5.015625 -21.03125 L 5.015625 -12.046875 L 4.671875 -12.46875 L 14.25 -12.46875 C 14.507812 -12.46875 14.734375 -12.367188 14.921875 -12.171875 C 15.109375 -11.984375 15.203125 -11.757812 15.203125 -11.5 C 15.203125 -11.226562 15.109375 -11.003906 14.921875 -10.828125 C 14.734375 -10.660156 14.507812 -10.578125 14.25 -10.578125 L 4.734375 -10.578125 L 5.015625 -10.890625 L 5.015625 -1.6875 L 4.859375 -1.890625 L 15.6875 -1.890625 C 15.945312 -1.890625 16.171875 -1.789062 16.359375 -1.59375 C 16.546875 -1.40625 16.640625 -1.179688 16.640625 -0.921875 C 16.640625 -0.648438 16.546875 -0.425781 16.359375 -0.25 C 16.171875 -0.0820312 15.945312 0 15.6875 0 L 3.96875 0 C 3.707031 0 3.476562 -0.09375 3.28125 -0.28125 C 3.09375 -0.476562 3 -0.703125 3 -0.953125 L 3 -21.40625 C 3 -21.664062 3.09375 -21.890625 3.28125 -22.078125 C 3.476562 -22.265625 3.707031 -22.359375 3.96875 -22.359375 Z M 3.96875 -22.359375 "/></g></g></g></svg>